<?xml version="1.0" encoding="UTF-8"?>
<svg id="Layer_1" data-name="Layer 1" xmlns="http://www.w3.org/2000/svg" viewBox="0 0 628.33 275.04">
  <defs>
    <style>
      .cls-1 {
        fill: #373592;
      }

      .cls-2 {
        fill: #6a258e;
      }

      .cls-3 {
        fill: #681b8b;
      }

      .cls-4 {
        fill: #3b258d;
      }

      .cls-5 {
        fill: #1e5ead;
      }

      .cls-6 {
        fill: #641a89;
      }

      .cls-7 {
        fill: #441d87;
      }

      .cls-8 {
        fill: #1498d8;
      }

      .cls-9 {
        fill: #129edd;
      }

      .cls-10 {
        fill: #3a3197;
      }

      .cls-11 {
        fill: #154a9d;
      }

      .cls-12 {
        fill: #244299;
      }

      .cls-13 {
        fill: #304f9e;
      }

      .cls-14 {
        fill: #314b9a;
      }

      .cls-15 {
        fill: #461d86;
      }

      .cls-16 {
        fill: #56278c;
      }

      .cls-17 {
        fill: #2c4f9d;
      }

      .cls-18 {
        fill: #632688;
      }

      .cls-19 {
        fill: #1e6fb5;
      }

      .cls-20 {
        fill: #2a2c8c;
      }

      .cls-21 {
        fill: #263892;
      }

      .cls-22 {
        fill: #2b3f96;
      }

      .cls-23 {
        fill: #47288e;
      }

      .cls-24 {
        fill: #63268a;
      }

      .cls-25 {
        fill: #26489d;
      }

      .cls-26 {
        fill: #803599;
      }

      .cls-27 {
        fill: #1263ac;
      }

      .cls-28 {
        fill: #3151a4;
      }

      .cls-29 {
        fill: #146ab1;
      }

      .cls-30 {
        fill: #772693;
      }

      .cls-31 {
        fill: #1a89cb;
      }

      .cls-32 {
        fill: #712991;
      }

      .cls-33 {
        fill: #323691;
      }

      .cls-34 {
        fill: #582b91;
      }

      .cls-35 {
        fill: #373a96;
      }

      .cls-36 {
        fill: #3e3095;
      }

      .cls-37 {
        fill: #7e3098;
      }

      .cls-38 {
        fill: #65379b;
      }

      .cls-39 {
        fill: #451e88;
      }

      .cls-40 {
        fill: #373f9a;
      }

      .cls-41 {
        fill: #7f399b;
      }

      .cls-42 {
        fill: #35489a;
      }

      .cls-43 {
        fill: #1f6cb4;
      }

      .cls-44 {
        fill: #5a258d;
      }

      .cls-45 {
        fill: #372990;
      }

      .cls-46 {
        fill: #2c56a5;
      }

      .cls-47 {
        fill: #421e88;
      }

      .cls-48 {
        fill: #3c3693;
      }

      .cls-49 {
        fill: #1794d5;
      }

      .cls-50 {
        fill: #3056a7;
      }

      .cls-51 {
        fill: #1e6ab1;
      }

      .cls-52 {
        fill: #293394;
      }

      .cls-53 {
        fill: #393190;
      }

      .cls-54 {
        fill: #29429a;
      }

      .cls-55 {
        fill: #311a85;
      }

      .cls-56 {
        fill: #293e98;
      }

      .cls-57 {
        fill: #1f67b1;
      }

      .cls-58 {
        fill: #3b218a;
      }

      .cls-59 {
        fill: #244198;
      }

      .cls-60 {
        fill: #1199d4;
      }

      .cls-61 {
        fill: #3a2d90;
      }

      .cls-62 {
        fill: #51278e;
      }

      .cls-63 {
        fill: #662590;
      }

      .cls-64 {
        fill: #1b92cd;
      }

      .cls-65 {
        fill: #206fb6;
      }

      .cls-66 {
        fill: #2a3894;
      }

      .cls-67 {
        fill: #1c62b0;
      }

      .cls-68 {
        fill: #0292cf;
      }

      .cls-69 {
        fill: #2c4398;
      }

      .cls-70 {
        fill: #7343a0;
      }

      .cls-71 {
        fill: #2b3996;
      }

      .cls-72 {
        fill: #214498;
      }

      .cls-73 {
        fill: #2859a4;
      }

      .cls-74 {
        fill: #2f53a2;
      }

      .cls-75 {
        fill: #1b53a2;
      }

      .cls-76 {
        fill: #60288e;
      }

      .cls-77 {
        fill: #722c93;
      }

      .cls-78 {
        fill: #6940a0;
      }

      .cls-79 {
        fill: #361481;
      }

      .cls-80 {
        fill: #3a3e98;
      }

      .cls-81 {
        fill: #5e268e;
      }

      .cls-82 {
        fill: #156cb4;
      }

      .cls-83 {
        fill: #06b4e2;
      }

      .cls-84 {
        fill: #7a48a2;
      }

      .cls-85 {
        fill: #1990d2;
      }

      .cls-86 {
        fill: #244fa3;
      }

      .cls-87 {
        fill: #08afe3;
      }

      .cls-88 {
        fill: #0b92d6;
      }

      .cls-89 {
        fill: #0ca6e0;
      }

      .cls-90 {
        fill: #1573ba;
      }

      .cls-91 {
        fill: #481e86;
      }

      .cls-92 {
        fill: #6d1e8d;
      }

      .cls-93 {
        fill: #173c8f;
      }

      .cls-94 {
        fill: #7a3899;
      }

      .cls-95 {
        fill: #3a58a7;
      }

      .cls-96 {
        fill: #402d94;
      }

      .cls-97 {
        fill: #2075bb;
      }

      .cls-98 {
        fill: #313b97;
      }

      .cls-99 {
        fill: #344099;
      }

      .cls-100 {
        fill: #1366af;
      }

      .cls-101 {
        fill: #4d3999;
      }

      .cls-102 {
        fill: #722290;
      }

      .cls-103 {
        fill: #2e3194;
      }

      .cls-104 {
        fill: #2156a8;
      }

      .cls-105 {
        fill: #20479b;
      }

      .cls-106 {
        fill: #2c3d93;
      }

      .cls-107 {
        fill: #1560aa;
      }

      .cls-108 {
        fill: #226ab0;
      }

      .cls-109 {
        fill: #532e94;
      }

      .cls-110 {
        fill: #116cb3;
      }

      .cls-111 {
        fill: #1d499a;
      }

      .cls-112 {
        fill: #2d3e98;
      }

      .cls-113 {
        fill: #1e489e;
      }

      .cls-114 {
        fill: #36278f;
      }

      .cls-115 {
        fill: #31288c;
      }

      .cls-116 {
        fill: #08ace1;
      }

      .cls-117 {
        fill: #2d52a1;
      }

      .cls-118 {
        fill: #323996;
      }

      .cls-119 {
        fill: #0fa3df;
      }

      .cls-120 {
        fill: #5a3196;
      }

      .cls-121 {
        fill: #71419f;
      }

      .cls-122 {
        fill: #5f3b9d;
      }

      .cls-123 {
        fill: #273e96;
      }

      .cls-124 {
        fill: #21469c;
      }

      .cls-125 {
        fill: #1093cf;
      }

      .cls-126 {
        fill: #1f92cb;
      }

      .cls-127 {
        fill: #813f9d;
      }

      .cls-128 {
        fill: #1885c3;
      }

      .cls-129 {
        fill: #2c3693;
      }

      .cls-130 {
        fill: #1563ab;
      }

      .cls-131 {
        fill: #28449a;
      }

      .cls-132 {
        fill: #302f92;
      }

      .cls-133 {
        fill: #1d4ea0;
      }

      .cls-134 {
        fill: #682a91;
      }

      .cls-135 {
        fill: #7b2b96;
      }

      .cls-136 {
        fill: #3d2790;
      }

      .cls-137 {
        fill: #352e94;
      }

      .cls-138 {
        fill: #793297;
      }

      .cls-139 {
        fill: #253f9a;
      }

      .cls-140 {
        fill: #0ab3e5;
      }

      .cls-141 {
        fill: #07b9e3;
      }

      .cls-142 {
        fill: #20449a;
      }

      .cls-143 {
        fill: #503c9b;
      }

      .cls-144 {
        fill: #3e1e8a;
      }

      .cls-145 {
        fill: #473596;
      }

      .cls-146 {
        fill: #2171b5;
      }

      .cls-147 {
        fill: #343f92;
      }

      .cls-148 {
        fill: #1e82c1;
      }

      .cls-149 {
        fill: #0b61a8;
      }

      .cls-150 {
        fill: #363c96;
      }

      .cls-151 {
        fill: #2b60ac;
      }

      .cls-152 {
        fill: #2f53a5;
      }

      .cls-153 {
        fill: #2173ba;
      }

      .cls-154 {
        fill: #185da8;
      }

      .cls-155 {
        fill: #0baae2;
      }

      .cls-156 {
        fill: #2e3196;
      }

      .cls-157 {
        fill: #1969b5;
      }

      .cls-158 {
        fill: #1a57a4;
      }

      .cls-159 {
        fill: #216bb1;
      }

      .cls-160 {
        fill: #7a3d9d;
      }

      .cls-161 {
        fill: #2f59a8;
      }

      .cls-162 {
        fill: #2f509f;
      }

      .cls-163 {
        fill: #23469f;
      }

      .cls-164 {
        fill: #532689;
      }

      .cls-165 {
        fill: #283192;
      }

      .cls-166 {
        fill: #263f97;
      }

      .cls-167 {
        fill: #433394;
      }

      .cls-168 {
        fill: #6c258d;
      }
    </style>
  </defs>
  <path class="cls-39" d="M562.45,33.13c2.9-.97,6.08-.88,8.99,0h2c-2,4.04-11.5,4.95-16.18,4.24-3.03.29-5.28,2.32-6.76,6.12-5.7,2.59-5.9,6.35-.62,11.28.71,4.56.91,9.35.58,14.36-12.02,1.25-25.71,11.8-27.97,24-.2,1.22-1.75,7.24-2.25,7.44-3.7,1.43-5.51-6.21-3.87-9.06l-5.33-2.22c-1.31,3.25-3.09,4.79-6.54,5.85-3.04,3.51-5.6-2.11-1-4,1.69-1.3.7-1.64-3-1-1.65.81-2.74-.25-3.25-3.18-4.07,2.23-8.56-3.03-7.74-6.82-3.93-.5-3.97-2.8-.67-4.97-.84-2.07-.22-3.68,1.56-4.94-2.3-5.77,2.33-9.27,6.52-11.86,1.27-5.43,9.11-9.65,14.15-7.63.69.27,7.99,7.55,8.93,8.54,3.76.15,3.91-2.94,2.54-5.84l.95-2.3c10.43-10.01,15.98-14.45,30.97-17,1.84-.76,3.84-1.1,5.99-1,.65-.07,1.34.05,2,0Z"/>
  <path class="cls-91" d="M600.41,41.13c.57,3.46-4.33,10.42-7.99,10-.55,4.35-15.71,23.24-17.16,23.28l-2.82-1.28c-5.19-2.96-16.07-4.61-21.98-4-4.69-2.18-1.01-8.86-1.36-11.02-.42-2.62-2.99-4.56-4.14-6.97-3.1-6.55.48-4.94,4.03-8.96,2.47-2.79,1.81-5.57,6.44-6.58,3.08-.68,4.69.48,6.39.23,3.14-.46,8.39-2.51,11.61-2.69,9.56-.55,18.99,3.38,26.97,8Z"/>
  <path class="cls-103" d="M380.63,38.13c6.04,2.78,7.47,6.01,4.28,9.71,7.22,5.18,8.3,9.27,3.23,12.25l-4.93,8.34c-4.69,1.76-7.89,3.99-9.58,6.7-2.75,2.26-8.6,9.97-9.99,13-.87,0-1.2,1.01-1,3-.77,2.42-.63,2.87-1,5-.69,19-.86,38.15-.5,57.43-.23,1-11.45-.03-10.48-3.43-2.25-2.96,2.26-7.89,6.51-6.55,1.15.37.51-22.23-.93-22.77-10.69,2.64-13.86.31-11.91-10.3-1.56-1.71-1.32-3.94.06-5.68-2.56-1.78-1.85-4.49.18-6.52-1.17-2.3-1.6-5.09-1.29-8.37l-2.6-4.81c-3.86-2.8.74-7.78,4.92-7.58-1.83-3.91.95-11.36,5.07-7.42,1.18-.93,4.28-2.95,5.12-1.05.18.41.51,7.39-.39,8.14,1.72,8.83-2.85,8.41-4.73,1.92,1.07.75,2.78,4.91,1,5.25.22,7.35.21,14.71-.04,22.08l-.97.67c1.24-5.64,1.68-13.36,1.33-23.15,3.99,1.72,4.27-3.4,3.38-6.51l.54-3.02c4.27.85,4.34-.73,2.74-4.32,3.08,2.66-1.02,6.36-2.85,5.3-1.54-.89-.49-10.39,2.85-5.3-2.31-.04-3.64-1.71-4-5-1.37-2.13,1.31-6.16,2.97-7.87,3.96-1.99,8.57-5.91,10.02-11.13,4.96-4.28,7.15-5.37,12.99-8Z"/>
  <path class="cls-113" d="M186.82,95.13c1.42-1.45,2-.82,1,1-.07.36-.15.71-.31,1.03-.01.03.27-.39.12-.65-.22-.39,6.58,2.67,7.07,3.58.21.38-1.06,7.99-1.24,8.38-2.5,5.45-7.94,9.06-13.83,10.26-1.29,2.98-2.89,4.11-4.8,3.4,1.32,5.36.55,9.33-2.32,11.91.35,6.23-5.26,14.58-12.37,10.03-.34,6.61-2.89,9.23-7.29,3.05-4.07-10.01-6.4-18.55-7.04-29.45-.21-3.64-.59-9.26,1.05-12.55l1.92,2.92c-1.05,9.58,5.02,3.9,8.55-.17-1.89-3.23-4.37-9.67-2.48-12.75,6.67-.73,13.56-1,20.66-.8,1.21-2.83,10.63-2.73,11.31.8Z"/>
  <path class="cls-110" d="M57.94,114.13c5.12-1.87,3.83,7.65,3.02,11.29-1.35,6.04-4.03,12.06-10.16,14.23-2.68,7.68-7.17,12.56-13.47,14.64-3.9,11.27-26.25,9.05-34.02,3.36-.55-.4-.98-.91-1.31-1.52-.28.87-.62.86-1,0,1.36-4.61,12.2-19.87,15.98-23,6.1-7.4,17.72-12.94,26.76-16.22l2.21,1.22c-.35-3.14,4.28-4.39,5.99-2,.11-3.14,4.05-4.38,5.99-2Z"/>
  <path class="cls-100" d="M77.92,107.13c3.84-.95,3.69,1.12,3.45,4.26-.52,6.77-3.48,8.61-9.71,9.63-3.21,1.73-4.68,12.7-2.1,15.07-1.4,1.97-2.27,3.99-2.63,6.04-.83,1.19-6.6,9.46-5.99,9.99,9.75,1.18,79.98-1.93,82.91,1.01l-1.19,1.28c-3.56-.68-7.16-1.11-10.8-1.28-.3,1.92-1.09,1.8-2,0-14.61.6-29.35.79-43.96,0-1.74,1.8-4.07,1.8-6.99,0-.68,2.72-10.23,2.78-13.19,2.36-3.09.52-4.69-.27-4.8-2.36-1,.9-2.12.84-3.36-.19-5.21,9.44-11.27,15.29-21.66,18.65-1.63,3.56-4.17,4.58-7.12,1.72-9.41,2.51-15.67.4-18.79-6.32l-1.83-.12c1.67,4.77-.84,12.96-6.18,12.26-.66-7.55-1.32-15.55,0-23,1.85-1.34,3.72.84,5.94,1.58,2.47.82,4.71,1.97,5.81,2.34,1.97.65,16.75-.6,17.97-1.19,1.5-.71,3.27-5.17,3.91-5.77,1.78-1.66,5.53-1.97,7.05-3.24,2.15-1.8,4.67-9.62,6.8-11.68,1.08-1.05,2.84-1.01,3.9-2.09,5.16-5.24,6.36-11.83,6.1-18.96-.06-1.68,1.19-1.69-1.54-2.98.75-3.58,9.03-7.34,11.99-5-.34-3.14,6.52-4.59,7.99-2Z"/>
  <path class="cls-141" d="M30.97.13c.87.28.86.62,0,1l-.23.5c-11.11-.52-20.69-.35-28.75.5,10.12-1.44,22.79-.7,33.47,0,4.2-1.22,7.4,7.33,4.71,10.44,1.8,3.96,1.39,9.56-.55,13.23-2.58,4.87-23.26,12.99-29.77,10.04-.23,1.3-.79,2.4-1.7,3.3,14.33-.63,28.6.04,42.78,2,.87.28.86.62,0,1-16.97-.07-33.98.05-50.95,0V.13c10.31-.04,20.66.05,30.97,0Z"/>
  <path class="cls-47" d="M479.53,36.13h39.97s0,18,0,18c1.23-.84,2.95-2.01,3.99-3,2.95,4.19,2.69,10.35-3.53,10.08-2.26-.1-1.5-2.03-2.9-3.11-1.12-.87-2.69-.96-4.01-2.03-.92-.75-1.31-2.87-2.55-3.51-.5-.26-7.3.52-7.78.79-.27.15-3.46,4.43-3.69,4.84-.65,1.16.8,2.95-1.03,3.93l-2.49-1.99c-1.02,1.84,2.92,5.12,1.99,5.99-2.1,1.95-3.02-2.96-4.98-1.99-1.82,2.65.26,5.57.05,7.38-.08.68-2.05.55-2.13,1.22-.34,2.64,3.65,5.02-1.93,4.39-.55,1.05,1.15,2.93,1,3-1.86,6.18-5.19,8.85-9.99,8v-52Z"/>
  <path class="cls-98" d="M261.74,145.13c2.1-1.62,4.2-.07,5.58,2.06,3.65,6.08,8.69,10.99,15.13,14.74,4.69,3.96,7.2,6.25,4.27,12.2-10.45,10.76-20.42,16.15-34.97,20-7.33-.09-8.98-2.1-4.94-6.02-3.1-2.11-3.25-5.13-.46-9.05-1.55-3.47-2.9-6.85,2.51-6.36-7.64-2.99-3.63-9.3,3.32-5.65-2.05-2.71-4-6.3.04-7.77,1.11-2.78,2.28-5.5,3.52-8.15,1.74-1.32,3.29-4.11,5.99-6Z"/>
  <path class="cls-58" d="M465.55,87.13c-.24,5.54-.57,10.87-1,16-2.59,1.58-5.28,3.08-8.08,4.5-.99-2.94-7.73,2.8-7.92,3.61,1.86,5.16-.51,6.99-7.12,5.49-1.49,2.79-3.85,5.33-7.07,7.62,1.59,4.14,2.81,7.97.58,12.08,2.22,3.19,2.26,7.02.53,10.48,1.7,2.77,2.55,5.91.12,8.22.06,3.46-8.61,4.67-9.99,2-.92-18.62-.92-37.28,0-56,1.58-4.27,3.74-5.51,6.5-3.73,3.14-2.72,5.94-3.47,8.4-2.23,2.21-1.7,4.13-3.67,5.76-5.89,6.45,1.84,10.23-5.7,11.42-11.71l3.88-5.45c-.28-.95.05-1.28,1-1,1.87,5.96,2.63,9.63,3,16Z"/>
  <path class="cls-119" d="M82.92,1.13c1.03-.82,8.38-.69,8.53-.29.11.29-.17.73-.57,1.22,2.77,5.05,3.21,11.09,1.3,18.13,1.29,1.04,2.6,2.18,2.53,4.04l-4.93,15.13c-2.52,5.61-2.15,9.63,1.11,12.06,1.93,12.66-.56,27.64-2.8,40.52-.7,4.01-2.08,10.86-5.18,13.19.05,3.22-2.89,4.15-5,2-2.53.81-5.73,1.24-7.99,2-4.97.1-2.5-7.65-.87-10.79,9.5-14.3,10.83-30.07,5.86-46.21.82-1.16,6.59-9.47,5.99-9.99-9.97-.04-19.99.03-29.97,0v-1c.18-.89.52-.86,1,0,6.25-2.75,12.72-2.7,18.98,0,2.27-1.43,4.92-2.29,7.95-2.59,2.69-8.99,2.3-18.98.86-28.02l1.48-2.46c-1.3-4-.73-6.31,1.7-6.94Z"/>
  <path class="cls-142" d="M187.82,96.13c.25-.87.58-.85,1,0,16.23-.06,32.33.14,48.33.61l-.38,1.39c-1.22,1.83-3.88,2.17-7.99,1,.04.88-.27,1.56-.98,2.01-13.64-2.67-12.03,3.1-8.14,13.66.8,3.5-1.44,4.51-4.53,4.44-2.73,3.18-6.5,5.47-11.32,6.89-5.29.1-10.62.43-15.98,1-.86,2.62,4.9,13.34,6.99,16,1.33,2.17,1,3.17-1,3,.17,2.21-.94,2.84-3,3-2.66,3.5-6.59-4.71-6.83-7.61,3.63-8.78-2.55-5.73-7.7-3.04-5.65-.16-5.68-5.43-.58-6.99-.82-3.39-1.11-6.52-.87-9.36,1.24-1.45,2.98-4.55,3.55-4.93,4.8-3.26,6.32.88,11.44-7.34.42-.67,1.64-.73,1.73-.92.2-.44-.53-1.75-.28-2.81.32-1.35,2.27-5.08,1.51-5.95-.24-.27-5.6-1.21-6.46-3.04-1.35-1.36.7-1.12,1.51-1.01Z"/>
  <path class="cls-9" d="M111.89.13c.87.28.86.62,0,1-4.54.31-8.87.65-12.99,1l2.78,1.08c-.87,5.04-.45,9.91,1.27,14.59l-1.7,15.1c1.89,4.95,1.14,8.04-2.23,9.28,1.99,5.51,1.84,10.74,1.53,16.57-.57,10.99-2.48,25.17-5.53,35.55,4.34,1.69.84,5.7-1.11,7.83-.94,2.87-8.66,5.34-10.99,3-.2-1.96.33-3.71.96-5.53,3.99-11.69,4.93-24.31,5.38-36.8.09-2.6,2.07-6.47-.08-10.41-.97-1.78-2.75-2.01-3.03-2.47-.7-1.16,1.05-8.29,1.56-10.49.56-2.39,5.27-14.85,5.11-15.67-.21-1.1-2.3-1.84-2.5-3.08-.34-2.11,1.39-9.49,1.05-13.07-.13-1.4-1.75-4.38-1.52-6.41-2.29-.26-4.62.01-6.93-.07-2.62,2.82-7.4,2.91-9.99,0-8.06,2.46-16.39,2.46-24.98,0-5.59,2.05-11.3,1.54-16.98,0V.13C57.92-.01,84.93.12,111.89.13Z"/>
  <path class="cls-15" d="M504.51,95.13c.6-5.16,1.01-1.69,3.06-3.65.85-.81,1.62-4.3,2.53-4.43,1.96-.27,5.41,3.37,8.41,2.08.42,4.02-2.78,7.28,1.5,9.99l2.49-5.99c-.17.89.11,2.04,0,3-.21,7.39-.64,14.76-1.3,22.12l-1.7-.12c.38,4.01-9.3,10.43-12.99,9,.56,3.08-1.5,3.69-4,2-2.57,4.59-9.97,8.36-14.99,7-.07-2.02,1.12-4.13,3.58-6.34l-5.11-5.33c-2.27-2.71-3.15-5.37.63-6.85-4.4-5.03-3.2-8.52,2.68-11.13l-.42-1.55c3.9-3.55,7.91-6.87,12.05-9.96,1.33,1.31,2.2,1.69,3.57.15Z"/>
  <path class="cls-112" d="M255.75,151.13c4.1,1.94-.26,4.62-.92,5.79-.54.97-.46,2.39-1.07,3.53-.36.67-1.91.69-2.03,1.2-.53,2.27,6.81,7.5-.51,7.43-1.48-.01-3.55-3.33-4.45-.43-.71,2.25,2.13,1.04,3.45,2.5.78.86,1.33,3.75,2.53,4.98l-6.99-1.98c5.74,5.29.14,8.35.4,10.05.34,2.16,3.36,2.57,3.59,3.45.62,2.43-3.73,1.62-2.99,3.98,1.13,3.61,5.91-4.35,4.99,2.52-9.66,2.56-14.97,2.98-24.98,3l-5.33-1.78c-3.42-.18-7.61-1.29-3.66-4.22-3.05-2.59.56-5.05,3.51-5.66l1.54-9.25c.69-3.29,1.76-6.73,5.42-7.22-3.31-5.67-2.8-8.63,1.52-8.87,7.74-.15,19.79-4.3,25.97-9Z"/>
  <path class="cls-155" d="M69.93,109.13c-3.77,1.27-8.21,3.55-11.99,5-1.9.73-3.95,1.17-5.99,2-5.46.13-6.95-9.4-3.92-13.52,4.68-4.19,7.28-9.04,7.8-14.56,3.57-1.77,4.56-7.41,1.44-9.84l1.68-4.08c5.26-7.37,10.74-14.64,15.98-22,1.69.7,2.3,2.09,2.76,3.74,1.41,5.03,2.78,13.6,2.26,18.76-.21,2.12-3.12,12.64-3.93,15.01-1.99,5.76-9.43,12.69-6.08,19.5Z"/>
  <path class="cls-130" d="M60.94,153.13c4.88,4.24-1.74,15.46-6.69,18.3-.05,3.59-2.59,5.75-7.61,6.49-1.97,2.8-4.03,5.48-7.36,2.61-1.52,1.44-2.59,3.38-3.24,5.8-.59,0-14.51,3.81-13.78,3.89l11.94-.05c1.86.2,2.32,1.09,1.76,2.96-10.51-.99-23.31,1.33-33.52.03-1.01-.13-1.12-.01-1.45-1.03-.06-4.52.27-8.86,1-13,1.04-.91,4.68-6.02,4.83-6.7.32-1.38-1.61-5.97.31-7.15.63-.39,4.15-.4,4.71-.02.99.67-.5,5.32,5.9,6.58,4.3.85,9.31-.86,11.56-.43.97.19,2.04,1.94,3.12,1.72.86-.18,1.22-2.44,2.22-3.07,5.27-3.33,8.96-2.4,14.84-8.9,1.68-1.85,6.94-10.83,7.97-11.04,1.88-.38,2.33,2.65,3.47,3Z"/>
  <path class="cls-132" d="M423.59,35.13c2.04,3.63-2.38,2.92-5.06,2.48l-9.7,10.09c2.56,2.74,3.26,6.33-1.26,7.31,3.57,4.19,3.3,7.46,1.03,12.13,2.76,2.04.27,5.38-3,4-9.71-3.47-23.74-2.74-31.97,4-2.06-5.38,3.19-3.36,5.71-5.3s5.72-8.53,7.26-11c.59-.94,3.32-1.63,3.08-4.13-.11-1.12-12.03-5.58-4.09-11.08-.06-1.06-7.62-2.53-4.98-5.5,13.8-6.22,28.37-7.77,42.96-3Z"/>
  <path class="cls-127" d="M626.39,82.13c-3.5,1.1-6.99,2.69-10.44,4.77-3,.17-20.6-13.05-19.53-18.77-5.33,5.06-11.68-5.15-7.52-10.25,2.1-1.79,3.27-4.04,3.52-6.75,2.62-3.11,4.92-7.03,7.99-10,16.77,9.7,23.28,21.88,25.97,41Z"/>
  <path class="cls-52" d="M358.65,39.13c.48,5.43.75,10.89.79,16.37-.29-1.21-.07-1.78,1.2-1.37,2.62-4.14,3.17-4.71,6.99-8,3.71,5.6-4.99,8.41-7.66,11.34-1.16,1.27-3.41,5.44-5.33,7.66,1.65,3.49-1.01,4.25-4,5-.31.38-2.07.51-2.72,1.24-2.04,2.31-.27,6.21.72,8.75-.75.54-7-3.56-7.99,5.01,4.11,3.74,2.68,6.39-.74,9.96,2.86,6.2-3.99,5.01-8.32,4.08.23,3.34-1.5,5.35-3.61,7.6,1.57,1.13,2.47,2.08,2.15,4.16-1.21,2.87-2.51,7.04-.96,9.37-1.54,2.38-1.99,5.14-1.37,8.27-2.44.79-3.74,2.09-3.91,3.9,2.33,2.98,2.26,4.87-.23,5.67-1.85,2.2-4.17,1.82-5-1v-43l.24-1.34c3.91-1.9,6.2-3.53,4.88-8.29.83-3.03,2.66-9.09,4.87-10.37l1.74-1.71c6.24,3.79,20.91-12.68,21.45-17.03-1.6-4.16-.95-8.48,3.99-9.48-1.05-4.51-.46-7.43,1.79-8.78.29-.66.63-.64,1,0,.09.63-.02,1.35,0,2Z"/>
  <path class="cls-54" d="M212.79,157.13c3.74-.22,11.07,3.11,16.98,3-4.84,2.47,2.21,7.76.08,10.39-.75.92-2.24.34-2.77.84-3.3,3.1-2.62,13.43-4.51,15.56-.49.55-4.31.74-4.78,4.21-7.26,3.75-18.3-3.53-22.47-10.1-6.11-.51-7.13-11.38.49-11.9-1.49-1.37-1.22-3.71,1-3-.19-2.07-.19-4.07,0-6l.04-2.3c4.82-1.77,10.13-2.01,15.95-.7Z"/>
  <path class="cls-85" d="M142.86,1.13c-1.36,2.09-4.37,2.82-9.03,2.18-7.48,7.99-6.9,14.27-3.01,24.1-.63,6.97.03,13.67,1.97,20.09l-.92,3.63c-7.92,11.4-15.95,22.68-23.98,34-3.82,3.1-5.34-3.22-1.51-5.73-1.09-4.57.26-8.93,4.06-13.09,2.67-7.24,8.69-34.06,6.9-40.69-2.82-3.5-3.45-6.71-1.88-9.63-5.16-3.72.02-11.9,4.42-13.85l-7.99-1V.13c8.48,0,17-.12,25.49-.02,1.69.02,4.44-.64,5.48,1.02Z"/>
  <path class="cls-154" d="M78.92,153.13l4.96,1.42c.83,1.61-12.52,20.25-16.82,18.89l-5.98,12.71c-4.39,2.81-5.44,5.13-3.14,6.98-7.29-.25-14.7.35-21.98,0-.13,0-1.13-.96-2.42-1.04-4.32-.27-8.73.27-13.06.05-2.02-5.49,6.59-5.18,9.79-6.03.85-.23.67-1.99,1.25-2.01.89-.02,2.95,1.47,3.43,1.04.25-.22-.21-3.74,2.64-5.87,3.92-2.92,3.3.89,3.84.87,1.68-.07,3.04-3.22,4.11-3.87,1.77-1.07,5.22-1.41,6.21-2.36,1.09-1.05.17-3.2.46-3.58.48-.64,2.67-1.09,3.76-2.67,3.59-5.22,4.97-8.12,4.97-14.53,2.71.83,13.98-.05,17.98,0Z"/>
  <path class="cls-157" d="M187.82,42.13c13.12,7.97,5.29,27.18-4.62,34.51,1.2,3.92-.59,6.91-5.37,8.95l-.57,2.57c1.87,6.18-2.94,8.17-14.42,5.98-1.93-3.83-1.07-10.03.91-13.86-.72-5.77-.38-11.2,1.01-16.29,2.88-.37,3.88-1.91,3-4.63,2.8-2.1,4.49-4.51,5.07-7.22,5.56-4.91,8.61-6.64,14.99-10Z"/>
  <path class="cls-8" d="M109.89,2.13l1.69,1.8c.87,23.68-1.82,48.14-5.6,71.6-.14.85.21,1.65.59,2.39-3.33,2.98-3.91,5.96-1.75,8.97-2.16,3.34-4.14,6.75-5.92,10.24-1.27,1.78-2.56,3.98-4,6-1.24.78-1.7.3-1-1-.86-1.69,2.21-4.71,2-4.98-1.17-1.45-4.79.5-1.76-6.29,3.4-7.62,1.17-8.79,2.14-16.06,1.23-9.27,2.88-15.09,2.42-25.18-.11-2.3-1.88-6.33-1.58-7.89.44-2.21,3.89-2.31,3.81-3.15-.1-1.11-1.37-2.08-1.55-3.54-.75-5.97,1.75-13.67,1.57-18.48-.09-2.31-1.88-3.38-2.04-4.98-.27-2.62,2.52-6.37-.01-9.46,3.62-.75,7.38-.77,10.99,0Z"/>
  <path class="cls-45" d="M452.56,52.13c2.45,4.42,1.04,7.69-4.21,5.56-1.98,2.76-4.29,5.82-7.96,6-1.6,4.03-2.9,8.11-3.92,12.24-2.67.54-5.3,1.28-7.89,2.2-1.69,2.34-6.87,6.1-8.99,3-2.3-3.36-10-8.58-13.99-10,1.85-.42,2.48-3.57,3-4l-.07-1.67c8.1-5.72,15.61-12.07,22.52-19.06,1.09-5.35,3.59-7.11,7.52-5.27,6.66,3.65,8.9,4.87,13.99,11Z"/>
  <path class="cls-80" d="M318.69,94.13c-.02,14.32-.03,28.68,0,43l1.34,13.75c-1.14,13.41-1.51,26.86.05,40.24,5.23.35,10.42.69,15.59,1.01,7.18-3.23,17.58-2.82,24.98,0-2.36,0-2.54-.59-.53-1.8-.22-12.21-.05-24.28.53-36.2-.28.87-.62.86-1,0,.84,11.07.84,24.1,0,35.5,1.62,3.66-5.32,1.73-6.03-1.33-5.38.55-12.37-2.25-7.13-7.92-1.32-1.7-2.27-3.01-2.7-5.2s-.31-24.8.53-25.9l2.34-.15c1.46-2.48,3.93-1.94,4,1,3.18.96,6.91,1.17,9.98,3,1-17.48-1.27-36.29-.06-53.62.13-1.89.96-2.71,1.07-3.38v97h-43.96l1-157c2.1,19.38,2.1,38.71,0,58Z"/>
  <path class="cls-104" d="M237.77,33.13c-1.02,1.77-2.41,2.19-4.31,1.93,3.43,1.94,5.11,4.54,5.03,7.79,5.71,3.95,6.93,7.93,3.67,11.95-2.98,4.3-5.44,8.74-7.38,13.32l-1.73,1.86c-6.43-.3-12.95.46-19.09,2.46l-2.16-1.32c-8.88,1.37-2.8-8.14.38-11.98-.5-2.45-.07-4.51,1.3-6.19-4.97-2.98-1.49-6.19,2.68-7.64,1.07-3.25,1.35-6.76.46-10.08l1.17-2.11c6.39-.7,13.54-2.41,19.98,0Z"/>
  <path class="cls-86" d="M237.77,33.13c11.92.48,17.6,2.8,27.97,8,2.87,2.15-.52,3.68-3.05,4.22-.01,4.05-1.71,7.61-5.08,10.68,3.35,2.28,2.47,5.21-1,6.64-1.06,3.87-5.11,8.43-8.85,9.46-2.96,1.78-11.51-.99-12.99-4l-9.99-1.99c2.07-.41,6.2.7,7.78-.23.86-.5,9.48-14.38,9.79-15.74.39-1.73-4.31-3.73-5.67-6.49-.61-1.25.09-2.72-.42-3.5s-6.02-5.25-7.48-6.06c-.27-1.64,1.36-.93,2.49-.99,2.13-.1,4.37-.08,6.49,0Z"/>
  <path class="cls-5" d="M217.79,33.13c2.05,2.92,1.51,10.41.01,13.26-.92,1.74-4.91,1.23-5.02,4.23-.04,1.12,5.14-1.55,4.98,1.01-.04.57-2.97,2.4-3.5,3.56-.72,1.55.32,3-.23,4.64-.84,2.52-8.96,9.42-2.24,11.29l-.08,2.23c-8.98,4.69-15.57,11.29-19.01,20.89l-2.9.88c.73.58.4.92-1,1-.33-.05-.67.05-1,0-.31-.26-.72-.95-1-1-2.33-8.34-.29-15.33,6.71-21.39,6.76-11.86,7.06-14.87,3.78-27.61-5.56.38-5.94-5.39-1.49-8,8.13-3.04,13.38-4.06,21.98-5Z"/>
  <path class="cls-42" d="M378.63,273.13l-1-55.01,10.78.23c6.14,8.48,11.92,17.41,18.19,25.78,2.58,4.1-3.46,8.68-6.99,6l-10.98-13.99-1.01,36.99c-2.55-1.59-6.18-.78-8.99,0Z"/>
  <path class="cls-124" d="M174.83,122.13c2.17,3.87,6.16,13.44-1.99,11.49,3.26,8.43,7.33-4.5,13.72,1.77,2.21,2.17-.9,3.66-.6,5.98.23,1.81,2.74,7.01,4.86,7.76,6.14.32-.13,7.03-4.77,7.11-4.79,3.56-10.27,7.19-15.93,8.68-1.48-1.22-3.22-.85-5.21,1.1l-2.07-.89c-4.68-6.42-6.99-10.61-9.99-18l4.99,1.99c-.78-7.2,1.45-8.89,7.48-4.96,3.55-3.4,7.67-11,8.05-15.95.33-4.33-2.97-.88,1.46-6.09Z"/>
  <path class="cls-131" d="M271.73,44.13c11.01,6.72,16.76,12.41,23.98,23,.77,3.32-1.61,5.78-7.12,7.4l-1.7,1.34c-.44,4.8-2.01,6.82-4.72,6.07-2.51,2.71-8.74,8.41-10.44,3.19l-9.65-2.56c-1.05-.37-1.35-1.34-1.34-2.44-4.8-.92-3.64-7.27,1.75-8.19l5.96-9.33c-.95-3.77-.3-7.01,1.95-9.71-4-1.74-4.38-11.82,1.32-8.77Z"/>
  <path class="cls-125" d="M9.99,241.13c6.33,1.26,20.78-1.69,25.97,0,.74,2.44,1.02,5.85,0,8-8.84.17-17.61.62-26.31,1.33l-.67-1.33,1.33.47c-1.42,3.79-1.38,11.02,0,14.87l-1.33.66c.36-2.28,1.05-2.74,1.44-.47,9.54-.32,19.05-.16,28.53.47.8,2.6.89,5.51.09,8.16-10.7.6-21.39.55-32.05-.16-2.03-.58-4.15-.74-6.35-.5-.65-11.04-.68-22.64.36-33.5.52-1.69,2.07-2.99,4.67-3.9.06-4.44,1.25-6,3.59-4.7l.73,10.6Z"/>
  <path class="cls-118" d="M261.74,145.13c.23-.16.35-1.19,1-1.49,2.01-.92,34.39-1.06,38.51-.56,3.7.45,4.02,1.46,3,5.07-2.29,8.06-11.63,19.9-17.53,25.97-3.81-1.46.13-2.62-.15-4.32-.11-.65-1.6-2.65-2.2-3.33-4.03-4.55-10.15-7.32-14.28-11.7-2.93-3.12-4.1-8.07-8.34-9.65Z"/>
  <path class="cls-92" d="M585.43,140.13c1.93-1.06,3.26.51,3.99,4.71,3.91-.99,5.05,2.19,5.55,5.46l3.3,1.36c2.48-.8,3.95-.43,5.44,1.68,4.16-1.92,8.41-1.63,11.11,2.05l1.82-1.04c6.81,1.93,9.18-.18,7.58-7.23-.02-2.61.19-4.79,3.16-4,.03,6.65.02,13.35,0,20-.4,4.78-.73,9.45-1,14-1.62,4.79-6.88,2.61-10.37.51-2.41-1.45-4.37-3.07-6.55-5.06-1.37,1.79-3.9,1.24-7.59-1.64-2.45,2.01-5.16.47-8.12-4.61-5.7-.68-8.47-4.75-8.33-12.2-.02-4.66,0-9.34,0-14Z"/>
  <path class="cls-71" d="M309.7,107.13l-1.1,2.44c-5.44.82-7.87,2.09-8.66,7.52-3.76,1.24-6.59,3.72-8.48,7.44l-2.73-1.4c-2.25,2.34-11.46-1.84-11.99-5-.87-.28-.86-.62,0-1,.33-1.9,1.24-2.36,2.9-2.45,1.13-5.08,3.02-9.78,5.66-14.09l2.44-.89c.48-5.81,2.79-9.39,6.92-10.73.2-6.31.7-12.39,1.49-18.24l1.56-.6c7.78,12.79,10.7,22.02,11.99,37Z"/>
  <path class="cls-133" d="M125.88,154.13c-.94,5.74-4.3,10.69-10.06,14.86-3.16,8.35-7.55,15.53-13.14,21.55l.23,2.58c-3.31-.09-6.68.16-9.99,0-2.73-.1-5.39-.43-7.99-1-4.02-5.22.54-13.92,7.32-14.87-.16-3.07.83-5.13,2.98-6.19,5.52.08,3.38-4.62,1.81-7.78l1.34-3.9c-2.87-3.42-1.69-5.17,3.54-5.25,7.62-1.26,16.28-.78,23.98,0Z"/>
  <path class="cls-49" d="M119.88,2.13c-.37,2.97-4.61,7.11-4.84,9.69-.18,1.93,2.55,2.74,2.76,3.95s-1.79,2.13-1.5,3.42c.79,3.52,4.15,4.28,3.32,11.17-1.16,9.55-3.95,28.34-7.36,36.79-.69,1.71-4.92,6.55-5.2,8.68-.18,1.38,1.94,2.41,1.76,3.68-.22,1.53-5.72,3.46-.92,5.63-2.86,4.03-6.14,8-8.99,12-.29-4.45,4.7-7.08,3.97-10.41-.32-1.49-1.89-2.76-1.81-3.93.14-2.04,3.01-3.58,3.6-5.41.41-1.25-.03-6.21.39-8.59,3.14-17.56,4.01-33.74,4.72-51.36.21-5.1-1.07-10.26.1-15.31,3.16-.81,6.81-.75,9.99,0Z"/>
  <path class="cls-31" d="M142.86,1.13c-1.39,10.19,1.96,25.8-.21,35.29-.79,3.45-8.42,11.3-10.78,14.71-1.49-.9-.71-3.08-1.33-4.72-3.07-8.06-1.21-10.98-1.69-18.74-.11-1.75-1.73-3.25-1.93-5.09-.33-3.05-1.07-8.32-1.12-11.01-.01-.6,4.92-7.16,6.06-7.95v-1.48s-4.98-1-4.98-1h15.98Z"/>
  <path class="cls-105" d="M131.87,153.13c.74.12,1.19.21,1,1,4.14,1.24,1.29,7.74-.41,10.64l-4.86,6.48c4.28,2.72,5.48,6.41,2.74,10.96-3.64,3.28-5.13,6.92-4.47,10.91-7.63.04-15.36.2-22.98,0l-7.99-1.99c1.3-.02,2.77.03,3.95-.58,10.56-5.42,10.1-16.89,17-24.95,1.27-1.48,3.65-2.16,5.05-3.95,1.93-2.47,1.75-5.89,4.96-7.53,1.14-.6,2.47-.93,4-1,.66-.02,1.34.03,2,0Z"/>
  <path class="cls-158" d="M85.92,153.13c1.39.34,2.72.67,4,1,2.36,3.13,2.83,14.69-.24,17.64-7.6,3.35-11.37,9.98-11.73,18.35,3.63-.55,5.95.12,6.97,2.01,2.63.2,6.26.92,7.99,1-11.01-.99-24.25,1.35-34.97,0-9.96-1.25.32-6.06,1.46-8.04.94-1.64,5.67-13.13,6.73-13.79.84-.52,2.57.18,3.56-.38.86-.49,10.03-12.17,11.23-14.08.36-.58,1.3-.75,1.98-.72l-3.98-2.98c2.33.03,4.66-.02,6.99,0Z"/>
  <path class="cls-72" d="M143.86,153.13c2.65,2.65.07,34.13,1,40.01-6.32.02-12.67-.04-18.99,0-7.4-6.66,6.15-9.86,3.61-17.53-.61-1.83-6.21-2.45-2.67-7.07,1.86-2.42,4.28-4.16,5.6-8.35.63-1.99.52-4,.45-6.05,3.66-.31,7.32-.65,10.99-1Z"/>
  <path class="cls-73" d="M223.78,218.13c7.65,0,15.34,0,22.98,0v9.01h-17.99v47h-10c.73-9.97-.97-21.2,0-31,1.49-6.77,2.61-13.8,3.36-21.07-2.23-2.27-.99-3.26,1.64-3.93Z"/>
  <path class="cls-136" d="M462.55,71.13c-.37.29-.64.71-1,1-1.93,4.7-4.4,6.85-7.4,6.43-2,3.28-4.33,5.84-7,7.69.09,4.39-4.18,7.69-6.34,2.81-5.1-.66-7.36-2.5-6.78-5.53-5.34,1.08-11.37.9-5.45-5.4-.15-1.69,3.63-4.46,4.5-6l1.48,3.99c-.05-6.03,4.25-9.58,4-15,4.62,2.79,8.18-5.7,9.52-6.01,2-.47,3.7,5.63,4.47-2.99,5.19,6.25,7.55,11.24,9.99,19Z"/>
  <path class="cls-56" d="M297.71,70.13c-1.8,4.87,1.03,15.77-1.49,20.01-.87,1.47-3.67,1.36-4.28,2.22-.82,1.16-1.62,7.32-2.74,8.78-.86,1.12-2.88.53-3.51,1.68-1,1.79-1.55,5.75-3.41,9.4-1.65,3.24.81,4.31-5.55,4.91-.98.63-1.39.09-1-1-2.31-4.77-1.86-7.45,1.35-8.06l-2.88-9.88c-3.81-.85-5.39-10.74-2.47-13.05,4.02,1.65,8.61-4.62,9.75-5.01.96-.33,2.84.27,3.25,0,.16-.1-.8-1.52-.68-2.32,1.02-6.89,8.66-4.92,11.66-10.67.7,1.03,1.34,1.91,2,3Z"/>
  <path class="cls-128" d="M49.95,221.13c.03-1-.04-2.01,0-3h10s0,46,0,46c8.75.45,17.57.67,26.47.67-.58,2.67-.6,4.76.51,7.33-.05.36.1.78,0,1-11.99.68-24.1.84-36.33.5l-.64-52.5Z"/>
  <path class="cls-168" d="M606.41,240.13c-.77,5.87-3.1,8.54-6.99,8-6.03-2.02-10.01-1.5-13.17-8.32-10.96-23.71,30.34-31.25,40.07-13.32-6.77,8.74-5.65,4.49-12.24,1.46-4.7-2.16-12.82-3.44-16.71.62-6.83,7.13,3.74,9.87,9.04,11.55Z"/>
  <path class="cls-67" d="M195.81,38.13c-2.73,2.86,2.72,1.36.97,3.98-.19.28-2.93-.79-1.97,2.01h4.99c-1.91,5.07,2.49,10.88,1.99,16.47-.07.78-6.01,13.44-6.63,14.28-2.46,3.38-6.19,5.49-7.22,10.98-.53,2.84,1.83,5.68-1.13,9.27-7.51-1.27-23.53-.16-31.97,0-.55,2.85-4.4,2.75-5,0-.67-4.45,8.17-4.24,9.99-1,.91-1.94,2.08-1.93,3,0,4.32-.04,8.67.04,12.99,0-.61-3.41-1.4-8.56,1.46-11.07.94-.83,2.84-.56,3.61-1.58,1.68-2.22-.47-5.43.33-6.39.67-.82,2.57-.61,3.65-1.65.55-.53,7.1-12.5,7.44-13.34.8-1.95,0-11.41-1.43-13.3-1.23-1.62-5.45-.02-3.08-4.66,3.05-1.61,4.43-2.67,7.99-4Z"/>
  <path class="cls-166" d="M196.81,160.13l4.01,4.49c.01.69-3.14,1.41-4.01,1.51-2.31-.05-1.85,1.05-1,3-.9,3.05-3.89,3.99-4,4.54-.19.98,1.4,2.05,1.68,3.15.18.75-.82,2.21-.69,2.3.41.29,2.61-.46,3.8.21.48.27,1,2.48,2.13,3.35,1.68,1.29,7.34,5.51,8.79,6.22,3.01,1.45,8.93.81,10.27,2.22.2.21-.09,1.74.98,2.48,2.04,1.41,6.82.34,8.01,3.52-1.33,0-2.66.01-4,0l-7.99-1c-17.75-.99-33.03-10.67-44.96-23l-.45-1.46c2.01-.7,3.91-1.83,5.68-3.38,6.39,3.03,11.61,1.35,12.71-6.44,1.14-1.05,7.51-2.37,9.02-1.73Z"/>
  <path class="cls-102" d="M592.42,135.13c3.9-3,8.81-1.57,9.99,3.4,1.01.77,23.72,5.8,22.73-2.42l2.24.02c.02,2.33-.01,4.67,0,7-2.66,2.51.25,9.76-1.13,11.87-.23.35-7.37,3.17-7.7,2.92-.26-.2,0-1.81-.66-1.82-1.66-.02-2.69,2.34-3.96,2.05-1.05-.24-1.59-3.44-3.12-3.81-.24-.06-4.56-.07-4.95-.03s-.57,4.48-4.96-1.16c-2.1-.54-.97,1.17-1.98,1.99-.87-2.29-4.4-2.49-5.23-3.25-1.17-1.07-.8-4.28-2.21-5.26-.6-.42-2.37.88-3.55-.41-1.51-1.63-.81-4.53-2.5-6.08,0-1.33,0-2.67,0-4,.48-2.51,5.98-3.73,6.99-1Z"/>
  <path class="cls-137" d="M423.59,35.13c5.98.41,10.1,3.32,14.99,6-5.69.71-4.02,3.73-5.96,6.53-5.96,8.6-16.28,13.01-24.01,19.47-2.58-1.85.36-5.32-.15-7.31-.4-1.57-2.85-1.95-2.89-5.17-.04-2.99,4.79-.14,3.04-4.03-.55-1.23-3.25-1.27-2.99-1.99.49-1.38,11.62-13.1,12.6-13.27,1.07-.19,2.47.78,3.79.71.85-.05,1.47-.96,1.58-.95Z"/>
  <path class="cls-61" d="M490.52,217.13c.33.01.67-.03,1,0,3.36.6,1.98,7.47-.39,8.64l-7.6.36c-12.42,3.74-17.84,17.22-12.99,29,.39,5.12-1.61,7.79-5.99,8-10.83-13.86-7.31-35.05,8.99-43l8.21-.45c2.63-2.7,5.56-3.55,8.78-2.55Z"/>
  <path class="cls-145" d="M424.59,95.13c.28,20.82.61,41.48,1,62,3.25.71,5.61,1.9,7.09,3.59,13.23.74,25.11,11.96,31.87,22.41,3,9.2-10.31,5.55-15.43,3.21-6.89-3.15-13.82-8.13-16.86-15.22-3.67-.46-5.9-1.79-6.68-4-.86,6.34-1.11,16.61.33,24.34l-1.33.66c-3.53-3.54.63-88.32-1-100,2.93.18,3.33,1.21,1,3Z"/>
  <path class="cls-19" d="M95.91,239.13c-.48-3.26-1.15-20.32.32-20.48.93-.1,1.71-.02,2.44.7-1.63,6.82.63,8.97,6.79,6.46-.34,5.18-.19,10.28.44,15.32.38.16,1.36-.06,2,0,1.17,1.24,1.05,2.84-.38,4.82,2.19.95,3.31,2.34,3.37,4.18-1.66.08-3.34-.07-5,0v14.01c1.08,1.08,25.4-1.57,28.98.99-.1.9-.45.85-1,0-6.22.31-12.55.65-18.98,1,2.95-.21,3.76,4.89,1,6-6.37.58-12.79.75-19.26.5l-.72-33.5Z"/>
  <path class="cls-6" d="M585.43,163.13c2.28.3,3.86,2.63,4.75,6.97,2.78,1.17,4.44,2.9,4.97,5.19,3.52-1.48,7.02-.64,10.5,2.51,4.47-2.12,6.77,2.39,2.83,5.15-.55,3.67,15.18,4.54,15.82,3.97-.48-3.78.22-7.05,2.09-9.79.06-4.44-.89-10.21,1-14-.03,9.99.02,20.01,0,30h-41.96c-.02-9.99.03-20.01,0-30Z"/>
  <path class="cls-12" d="M193.81,146.13c1.71-.08,3.37.59,5,2,3.89,1.55,9.44,7.23,13.99,9-.91.05-3.68,1.77-5.71,1.71-5.88-.16-2.65-2.91-10.28,1.29-1.35.74-2.55,2.07-3.99,2.57-1.14.4-2.76-.58-2.91-.48-.99.72-1.18,6.57-4.32,8.17-.91.46-5.52,1.51-6.49,1.49-1.48-.04-3.33-2.4-4.24-1.73-.18.13-.22,1.76-1,2.47-.91.83-3.39-1.1-4.03.51-2.99-3.09-4.33-4.35-6.99-8,.98-1.03,5.65-3.75,6.51-4.01.61-.18.4,1.53.67,1.75,1.36,1.09,3.44-1.6,4.87-2.18,6.31-2.57,5.35-3.08,10.25-6.23,1.15-.74,2.82-.32,4.78-1.77,2.62-1.94.81-3.04.9-3.57.58-3.73,2.26-2.26,3-3Z"/>
  <path class="cls-30" d="M597.42,122.13c.4-.24.8-.46,1.23-.58s4.56-.44,5.6-.31c1.38.17,2.67,1.25,3.45,2.39,2.79-.34,7.31,1.01,9.24,3.02,2.91-1.73,8.03-1.84,10.45.48.04,2.99-.02,6.01,0,9-2.56,4.87-3.29,7.07-9.49,6.98-4.01-.06-10.07-2.27-14.1-2.71-1.09-.12-3.12,1.02-3.37.73v-4c-3.57-1.11-.63,3.88-3.49,2.99-3.03-.94.88-4.68.48-4.98-1.83-.65-2.52,1.71-3.53,1.75-.82.03-1.27-1.7-1.46-1.76-2.67-1.41-2.17-8.58,1.13-9.31.26-2.52,1.1-4.73,3.87-3.69Z"/>
  <path class="cls-4" d="M461.55,72.13c-1.66,3.94-2.95,10.87-4.97,14.27-.52.88-4.2,3.76-5.35,4.87-.66.63-.81,3.24-2.6,1.76-.14-.12.18-3.31-2.05-1.88-.08.05.1,1.17-.38,1.58-1.05.9-5.29,4.82-5.63,4.98-1.33.62-2.13-2.24-3.99-1.57l.99,2.99c-3.49-1.08-3.88-1.52-5.49,2-4.77-7.8-1.23,1.12-6.5,0-.5-1.87-.83-3.87-1-6-.33-1.41-.69-2.01-1-3-.79-2.54-2.74-9.15-4-11,3.52-.31,5.29-3.65,8.99-3,.04.46,1.12,1.23,1.06,2.46-.06,1.1-2.51-.2-2.05,1.53,2.64.59,7.14-2.3,8.47.97.29.72-1.2,6.95,2.01,1.04,1.51,2.29,2.5,5.41,4,1l1,4.99c4.52-2.32-.21-6.44,3.49-8l2,3.01c-1.08-2.24,2.8-6.84,4.46-8.13,1.25-.97,2.4.3,3.29-.09.32-.14,3.97-3.77,5.25-4.79Z"/>
  <path class="cls-25" d="M271.73,44.13c-3.81-.65-1.37,5.25-1.99,7l2.98-1c1.12,3.2-2.42,5.36-2.72,7.61-.19,1.43.85,2.98.35,5.42-.24,1.15-5.76,9.51-6.56,10.26-1.09,1.03-3.01.83-3.62,1.66-1.26,1.71.62,4.46.57,5.04,2.22,1.59,1.7,2.41-1,2-.6.46-1.48,1.1-1.96.8-1.13-.72-8.96-7.33-9.94-8.39l-.08-2.41c.75-2.95,4.24-5.2,6.02-7.52.71-.92.7-2.29,1.3-3.16.66-.96,3.82-1.4,2.59-3.26-.07-.11-1.78.13-1.97-.66-.93-3.76,3.18-5.03,4.29-7.66.79-1.88.43-4.59,1.24-5.79.69-1.02,3.91-.79,4.51-2.96,2.24,1.13,3.52,1.49,5.99,3Z"/>
  <path class="cls-3" d="M585.43,154.13c2.8,4.7-.56,9.53,6.99,8.01l-.99,2.99c4.75-2.25,3.54.63,4.7.99,1.04.33,2.89-.24,3.29.02.18.11-1.48,2.88-1,3.99,2.07.48,2.6-2.02,4.48-2.03.45,0,.45,1.34.92,1.63,1.59.98,3.31-.24,2.59,3.41l2-3c2.09-.68,2.67,1.98,3.95,2.47,1.07.41,2.73-.79,3.03-.46.41.43-.93,1.91-.86,2.51.18,1.56,2.2.6,2.6.86.35.23.36,1.54,1.49,1.93,1.9.66,5.74.28,7.75-.3-.06,4.32.05,8.67,0,12.99-1.78.63-2.5-1.69-3.47-1.66-2.07.07-1.44.47-5.04.21-3.85-.27-9.53-.22-11.3-5.22-1.03-2.9,3.91-2.61,1.83-4.32-1.27-1.05-3.25,2.68-4.99,2,.44-4.73-2.22-3.95-2.5,0-2.63-1.2-.1-4.59-.51-4.99-.49-.47-5.31,2.02-6.88.88-.53-.39-.43-2.52-1.01-3.27-.71-.92-2.3-.45-2.74-.91-2.75-2.85-2.78-6.41-4.35-9.71,0-2.99.01-6.01,0-9Z"/>
  <path class="cls-43" d="M147.86,229.13c1.09.03,7.55,3.49,7.65,3.92l-.66,3.08c-7.18,15.63,3.72,31.71,20.98,29-.07,2.35-2.35,3.33-6.85,2.94-1.32,3.09-3.64,5.41-7.14,5.06-19.13-5.99-25.22-27.95-13.99-44Z"/>
  <path class="cls-109" d="M480.53,159.13l1.98,1.7c-1.13,5.33.14,8.28,3.81,8.84,5.74-1.65,9.04.48,11.14,5.93,5.11,10.23,12.04,14.73,20.8,13.51.06-2.75,1.14-4.07,3.24-3.97,1.64,5.7.67,8.16-2.91,7.38l-6.08.62c-10.6.86-22.25-.64-32.97,0v-1l1.06-2c5.42.49,5.35-.19-.2-2.01-.19-3.38-.47-6.71-.86-9.99v-22c.28-.87.62-.86,1,0,2.54,1.14,2.54,1.87,0,3Z"/>
  <path class="cls-13" d="M364.64,235.13c.16,4.46-6.7,6.06-8.99,3l-2.32-.46c-4.61-9.55-18.06-12.79-26.32-6l-2.33-.54c-2.13,2.28-7.86-4.6-5.99-7,15.24-13.45,38.89-8.46,45.96,11Z"/>
  <path class="cls-21" d="M358.65,36.13c.03.33-.05.67,0,1h-1l-.93,2.09-10.8.02c-5.33,5.03-16.14,12.68-15.44.27-.81-.83-8.09-.7-8.6-.15-.42.46-.7,12.01-.27,12.46,3.32.75,4.88,2.06,5.37,5.52,4.15-.08,4.91,4.02,1.42,5.97,2.75,2.72,3.99,8.86.29,10.82-.14,7.38-1.94,6.26-2.83,9.7-.33,1.27.77,2.66.11,4.98-1.06,3.72-3.69,4.84-7.27,5.32.03-19.32-.02-38.68,0-58,13.1-1.22,26.82-.86,39.96,0Z"/>
  <path class="cls-135" d="M604.41,111.13l.54-2.31c3.9-1.16,7.72-.33,11.45,2.51l9.77-.65c.69,1.04,1.09,2.19,1.22,3.45.14,4.31-.06,8.68,0,13-2.4,1.17-5.42.08-7.36.31-1.46.17-2.77,1.73-4.07,1.75-.87.02-1.17-3.01-2.06-3.05-.39-.02-1.6,1.97-2,1.97-1.11-.01-.83-4.08-3.49-2.98.23.43,1.75,7.9-.99,5-1.07-1.13.72-7.9-6-6.99l-1,3-3-4.01c-1.7.67-2.65-.34-2.88-3.03-3.62.15-5.77-2.85-2.12-3.97.18-5.13,9.07-5,11.99-4Z"/>
  <path class="cls-60" d="M0,219.13c.43-1.08,1.42-.96,2.39-1.05,10.9-1.1,23.8.81,34.93.19,2.78.91,1.34,6.41,1.64,8.86H10.49c-2.31,0,.41,11.38-.5,14-2.1-.68-.53-7.9-1.01-9.99-1.95.12-.46,3.1-1.49,4.99-.67,1.22-4.75,3.26-6.49,3.01-.28-6.58-.61-13.25-1-20Z"/>
  <path class="cls-74" d="M287.72,219.13c11.57,1.23,16.35,15.94,10.84,25.35-1.99,3.4-4.89,4.86-7.84,6.65l-1.81,1.12c.64,5.67-7.55-.41-7.18-4.26-3.57.67-5.9.05-6.99-1.86l.4-1.21,9.59-.79v-2.3c5.85-3.73,4.55-11.05-2.18-12.54l-.82-2.17c-7.79-.09-9.44-1.95-4.95-5.59-1.83-4.38,7.59-3.11,10.95-2.41Z"/>
  <path class="cls-99" d="M424.59,218.13c2.48,1.19.18,48.41,1,55.01-2.69-.28-5.9.45-8.47-.03-3.92-.74-14.42-18.69-17.51-22.97,3.22-1.35,6.11-2.25,6.99-6,2.26,3.01,4.72,5.95,6.99,9,1.4-.49,1.47.73,1,2,2.71-.18,5.37-.9,7.98-2.17v-18.52s1.51-.77,1.51-.77c-.24-5.33-.08-10.51.5-15.54Z"/>
  <path class="cls-87" d="M58.94,74.13v3.48c.71,1.85,2.92.39,2.99.52.66,1.23-1.19,4.34-1.46,5.86-.21,1.22.87,3.62.43,4.08-.27.29-2.55-.11-3.54,1.03-.46.53.28,3.39-.6,5.27-3.86,8.18-13.61,9.81-4.82,21.76-1.84.74-4.19,1.22-5.99,2-3.32-.97-6.11-3.52-8.38-7.67-2.94-1.25-3.15-1.5-1.61-4.33,7.65-10.65,15.36-21.33,22.98-32Z"/>
  <path class="cls-46" d="M265.74,230.13l2,.87v11.11s15.58.01,15.58.01l1.41,2c-3.91,1.97-6.83-.18-9.99,2,.41,2.52-.03,2.58-2,1l-1.06,2.08c-2.86-1.02-4.17.29-3.94,3.92-.51.68-1.18,1.35-2,2-.56,5.72.41,12.18,0,18-3.11.55-6.28.59-9.5.11v-42.78c2.03-.15,4.15.89,6.35,3.14.19-2.18.67-3.59,3.15-3.47Z"/>
  <path class="cls-41" d="M596.42,68.13c4.24,1.02,2.61,4.29,5.05,6.44,1.96,1.72,5,3.94,6.78,5.16,1.54,1.05,6.63,5.06,7.82,5.23,2.91.43,5.26-7.08,10.31-2.83.05.33-.04.67,0,1,1.64,7.06-6.66,10.65-12.57,11.84-3.38.68-11.46,1.66-13.41-.84-6.47-5.67-10.34-15.29-5-23-2.44-1.3-1.28-2.62,1-3Z"/>
  <path class="cls-107" d="M93.91,102.13c.42-.03,1.17.41,1,1-9.26,13-18.84,25.94-27.97,39-2.09-1.62.98-3.97,1.04-5.49.02-.58-1.99-.42-2.1-1.12-.1-.61,1.41-11.73,1.61-12.32,2.14-6.23,8.28-4.11,9.96-6.05.63-.73,4.01-9.72.48-10.02,1.68-.54,3.31-1.49,5-2,2.77-.84,8.53-2.8,10.99-3Z"/>
  <path class="cls-2" d="M616.4,273.13c-3.18.12-4.91-.62-5.2-2.22-2.55.55-3.54-.43-4.89-2.6-2.86.07-4.49-.99-4.9-3.18,12.18,3.57,24.41-8.47,8.99-14-2.95-2.68,2-9.47,5.99-8,1.14.45,2.56.08,4.35,1.12,12.18,7.09,8.93,24.33-4.35,28.88Z"/>
  <path class="cls-122" d="M479.53,88.13c.89.19.85.52,0,1,1.98,1.5,1.67,3.24,0,5,1.83,15.26,2.55,29.77,2.15,43.55l1.85,1.45,2.35.05c.76,5.39,2.66,9.27,5.71,11.65l-.06,2.3c.88.23,1.33,1.23,1.37,3,2.97-.03,7,5.81,3.63,8l-.91,2.02c-2.34.77-14.14-4.33-15.07-7.02-.02-1,.02-2,0-3-.39-4.72-.72-4.72-1,0-.05,7.32-.06,14.68,0,22,.33,4.19.95,8.24,1.86,12.14l-1.86,1.86c.03.33-.03.67,0,1V36.13c-.03,17.32.03,34.68,0,52Z"/>
  <path class="cls-161" d="M287.72,219.13c-3.16-.34-6.76.24-9.99,0,2.62,4.25-.82,3.43-2,6.98l5.99,1.01-1.19,1.9c-5.4-.72-10.33-.35-14.79,1.1-.82,2.08-1.54,3.34-1.01,6-4.53-.54-4.97-2.28-7.97-5l-.03,41.42,9.01.58c-2.37,2.13-6.85.57-9.99,1v-56c8.81.1,17.66-.13,26.49-.02,1.69.02,4.44-.64,5.48,1.02Z"/>
  <path class="cls-17" d="M324.68,231.13c1.63,2.4-2.06,9.21-5,9-.47,5.39-.34,10.71.4,15.93l-1.58.32c-1.68,4.54-3.62,5.79-5.82,3.75-7.31-12.83-4.95-26.34,5.99-36l5.99,7Z"/>
  <path class="cls-121" d="M522.49,96.13v97.01s-9.99,0-9.99,0c2.11-.17,5.87-1.99,9-.99v-7.01c-1.99-1.17-2.8-2.61-.62-3.62l.62-9.38-1.95-5c1.44-1.71,2.58-4.34.96-5-.55.73-1.36,1.26-2.22.96-3.21-7.08-9.36-14.57-16.88-17.87.06-4.33-.77-8.43-1.8-12.75l1.92-1.34,2.07-.64c4.05,5.92,8.98,10.76,14.81,14.53-.08-1.45.83-2.31,2.1-2.89-2.59-6.88-3.12-17.13-1-24,4.91-4.37-.3-15.85,3-22Z"/>
  <path class="cls-26" d="M627.39,106.13c-1.7.28-2.61-.72-2.73-2.99-2.98,1.77-6.48,1.82-10.48.14-4.41,1.4-8,1.35-10.77-.14-2.84,5.56-7.74-1.25-6.99-6-3.98-2.4,2-7.39,4-3,4.75-.89,11.56-.64,15.91-1.57,1.1-.24,7.22-4.39,8.44-5.33s.13-3.28,1.63-4.1c.03.22.94,1.08,1.04,2.41.52,6.62-.47,13.89-.05,20.59Z"/>
  <path class="cls-94" d="M600.41,94.13c-2.51.47-3.05-.81-4,3-3.02,4.06-11.87,3.64-10.52-3.69l-.47.69c-1.8-3.7-2.71-10.67-5-14,1.29-4.6,10.34-9.26,14.99-9-.37,1.84-.24,11.07.15,13.26.66,3.65,6.13,5.24,4.84,9.74Z"/>
  <path class="cls-57" d="M161.84,273.13c1.29-1.51,3.48-3,4.68-4.37.53-.61.14-2.2.42-2.47.33-.32,6.04-.11,8.89-1.16,2.13-.78,6.12-3.11,7.96-4.55,2.4-1.88,1.25-4.7,5-2.93.71.34,5.8,4.53,5.83,4.96.21,2.43-6.93,7.55-9.12,8.7-8.68,4.54-14.53,4.68-23.66,1.82Z"/>
  <path class="cls-160" d="M592.42,51.13c-.87,2.35,2.83,1.53,1.99,3.48-1.14,2.64-5.6,2.89-4.82,7.76.87,5.44,3.28,4.9,6.83,5.76.45,1.23-.89,2.45-1,3-4.93,3.66-10,5.77-14.99,9-.43-.62-7.12-6.5-7.99-7,2.26.09,2.67-1.39,3.81-2.68,5.5-6.24,10.79-12.95,16.17-19.32Z"/>
  <path class="cls-140" d="M35.96,106.13c-.73,3.92,2.46.33,2.99.99.12.16,0,2.26.96,3.53,1.83,2.39,4.77,4.36,6.04,7.48-6.51,2.8-24.09,10.95-28.97,15,5.22-9.61,12.6-18.11,18.98-27Z"/>
  <path class="cls-62" d="M528.48,241.13l1.93,1.58c-.98,8.79,3.21,16.47,11.2,20.18l.86,2.24c2.43,6.46,1.43,9.13-3,8-10.6-2.7-14.56-5.88-18.98-16-1.14-3.76-.48-6.09,2-7-.18-2.26.06-4.13,2.74-4.08.15-2.71,1.24-4.35,3.26-4.92Z"/>
  <path class="cls-129" d="M308.7,126.13l-17.31.06c-2.89-.32-3.78-1.34-2.67-3.06,3.74.18,3.21-3.63,4.7-5.05,1.25-1.2,4.68-1.68,5.07-2.17.54-.68.14-2.59.75-3.71,2.21-4.04,6.76-3.66,10.46-5.07.55,6.35,1.67,12.88-1,19Z"/>
  <path class="cls-138" d="M585.43,94.13c.06-1.11-.69-3.26.99-3-.62,9.77,4.52,5.25,10,6,.16.02,2.88.9,3,1.01,2.1,2.04-2.55,1.61-1.99,2.98,2.99-.42,3.42.08,3,3.02,1.03-.33,1.87-.86,2.99-1.01,2.34.64,2.63,1.91,1.12,3.72,1.66,1.72,1.91,2.73-.12,4.28-4.04,1.23-8.31,1.71-11.99,4-3.42,3.51-6.83,2.48-6.14-3.09l-.86-1.91c.02-5.29-.27-10.73,0-16Z"/>
  <path class="cls-151" d="M223.78,218.13l-1.47,2.01,2.45.48c-1.93,3.15-.84,15.27-2.96,17.02-.43.36-1.96-.59-2.01-.5-.14.27-.93,5.21-1.01,6-.36-2.57,1.1-16-1.5-16h-16.48v-9.01c7.64,0,15.33,0,22.98,0Z"/>
  <path class="cls-48" d="M446.56,218.13c.72,12.58.76,25.38.11,38.4-8.87,3.48-8.41-5.22-7.1-11.4-.72-8.57-1.05-17.23-1-26,1.34-1.5,5.85-1.31,7.99-1Z"/>
  <path class="cls-37" d="M627.39,106.13c.2,2.63-.08,5.36,0,8-1.54-3.34-1.63-.99-2.46-1-4.56-.06-9.06-.07-13.53.99l2.99-2.98c-3.67.14-5.6,2.99-5-2.02-1.66.62-3.29,1.49-4.99,2.01-1.39-6.59-2.28.88-3.99-1.01-2.12-2.33,4.64-4.11,2.99-6.99,3.28-.44,8.77-2.07,11.53-1.83,2.99.26,5.84,3.37,9.47-.66,1.26-1.4.23-3.62,1.97-3.5-.99,3.08.85,6.94,1.01,8.99Z"/>
  <path class="cls-97" d="M132.87,218.13c-1.67,2.45-4.52,3.45-8.55,2.99-10.04-.98-11.86.55-5.47,4.6l.03,1.41c-4.32.05-8.67-.03-12.99,0v14.01c-2.18-.92-.44-11.3-1-14-8.52,4.08-8.66,0-7.99-8-1.74-.23-.94,2.27-.99,3.48-.22,5.47.02,11.04,0,16.51.41,11.35.41,22.68,0,34-2.74-2.74.01-47.78-1-55.01h37.97Z"/>
  <path class="cls-147" d="M276.73,118.13c3.16,1.05,8.98,3.49,11.99,5,1.37.69,2.02,2.83,2.7,2.98,4.69,1.02,12.19-.68,17.28.02l-120.88,1c.37-1.11.46-.84,1.47-1.02,3.63-.65,10.37.06,14.52.02,7.59-2.79,15.37-2.74,22.98,0,6.71-2.5,13.27-2.47,19.98,0,6.49-1.28,13.07-2.56,19.63-1.57-1.67-1.09,4.64-8.58,5.17-8.74.77-.24,4.74,1.17,5.17,2.31Z"/>
  <path class="cls-76" d="M538.47,218.13c10.59-2.35,19.71-1.61,27.97,6,2.87,2.68-2.97,9.54-5.99,7-2.32.44-5.1-.28-8.36-2.15-4-.22-7.21-1.17-9.62-2.85-4.01.34-5.05-1.87-3.13-6.62l-.86-1.38Z"/>
  <path class="cls-159" d="M107.89,241.13c7.68.67,16.2-.49,23.98,0v9.01c-6.96.22-14.03-.32-20.98,0-5.36-2.74-7.2-2.95-3-9Z"/>
  <path class="cls-44" d="M538.47,218.13c5.24-1.58,1.14,5.34,2.01,7,.3.56,4.51-3.53,1.99,1-1.05,2.17-3.04,4.01-5.96,5.51-2.17,3.03-4.51,4.85-7.03,5.49-1.98,2.27-4.62,2.8-6.06-.64-2.69-.12-3.93-.56-2.93-3.36,3.86-8.14,9.12-13.03,17.98-15Z"/>
  <path class="cls-65" d="M184.82,220.13c.8,3.23-1.74,5.85-4,8-4.21-2.18-12.57-2.74-16.98-1-4.09,2.55-7.75-3.65-5.99-7,10.19-4.93,16.96-4.9,26.97,0Z"/>
  <path class="cls-150" d="M424.59,218.13v41.99s-1.01-4.99-1.01-4.99c-3.32,1.02-6.31,2.83-8.98,0,.28-.87.62-.86,1,0,.83-6.23.96-12.84,0-19-.93-2.05-1.19-16.76.02-17.46.18-.1.55.13.97.46,3.32.96,3.06,13.45,0,15,.44-1.67,2.1-2.47,5-2.4v-12.17s1.99-1.42,1.99-1.42c.36.05.78-.1,1,0Z"/>
  <path class="cls-82" d="M172.83,52.13c3.73,5.53-2.58,5.76-2.87,6.07-.69.75.59,4.48-.57,6.01-.81,1.06-3.31.42-3.62,1.52-.91,3.2.33,11.38-.06,14.89-.17,1.53-1.6,2.58-1.83,4.06-.47,3.12.79,6.5-1.04,9.45-1,0-2,0-3,0l-2.76-.96c.79-5.32,1.66-10.7,2.62-16.12-2.09-1.18-3.04-2.49-2.85-3.92,5.18-9.39,7.7-13.69,15.98-21Z"/>
  <path class="cls-152" d="M341.67,265.13c-.17,2.03-2.25,2.96-6.25,2.81-1.49,3.4-4.41,4.79-8.74,4.19-7.04-2.79-10.2-5.36-13.99-12,3.02-.51,4.69-5.65,4.01-8,1.27-.59,1.12,4.24,2.98,1.99.45-.55-1.77-8.63,0-13.99l1.8,1.9c-1.31,11.74,5.87,21.97,18.3,21.22l1.88,1.87Z"/>
  <path class="cls-77" d="M585.43,110.13c2.62.23,1.71,4.71,2,5.01.48.49,3.83-1.51,4.99,0,.36.47-.93,2.6,1.5,2.02,1.05-.25-.37-2.93,2.5-2.01-.93,1.67,1.1,6.65,1,7-.28,1-3.35,2.46-1.01,7-5.93-4.66-2.19,2.37-3.99,6-.9-.29-5.19,1.79-6.99,1,.01-8.65-.03-17.35,0-26Z"/>
  <path class="cls-111" d="M154.85,95.13c2.08,2.98,1.66,6.76,3.1,10.22.72,1.73,3.86,1.09-1.06,6.05-.2.2-4.09,3.28-4.33,3.43-1.16.71-3.41.04-4.28,1.22-1.12,1.53.69,4.99-1.41,5.07.17-5.3-.27-10.7-.01-15.99.18-3.65.39-5.45,1-9,.73-1.9,1.4-2.24,2-1,1.56-.17,3.37.03,5,0Z"/>
  <path class="cls-36" d="M484.53,265.13c6.26.67,11.73-.97,16.52-5,1.87-1.57.59-4.28,4.43-2.48,12.36,5.8-3.16,14.11-9.96,16.03-1.49.42-2.68.26-4,.45-1.57-1.23-2.42-3.28-2.55-6.13-2.99.06-4.47-.9-4.45-2.87Z"/>
  <path class="cls-96" d="M491.52,217.13c4.69.47,22.01,7.48,18.86,12.88-.19.32-6.01,3.96-6.38,3.96-.57,0-6.05-5.49-9.19-6.63-3.87-1.4-7.2-1.41-11.28-1.21,2.23-.67,6.62-.87,6.9-1.1.47-.39,1.27-6.54,1.09-7.9Z"/>
  <path class="cls-90" d="M159.84,94.13c-3.14.02-7.69-.83-9.99,1-.54.06-1.36.81-2,1,1.72-10.07,4.41-14.68,8.99-23,7.45,2.57,4.24,4.93,3.5,9.52-.16.97.59,2.3.32,3.71-.46,2.43-3.38,4.61-.82,7.77Z"/>
  <path class="cls-117" d="M280.73,258.13c2.08-2.84,5.75-2.84,10.99,0,2.45,4.17,8.31,10.36,9.98,14.52.7,1.74-.48,1.35-1.47,1.48-13.95,1.87-13.16-6.91-19.5-16Z"/>
  <path class="cls-1" d="M447.56,272.13c-3.57,1.24-8.98,1.27-8.42-3.64l-.57-11.36c-.03-3.99.05-8.01,0-12,.28-.87.62-.86,1,0,.05,2.21-.53,7.68.44,9.06.78,1.12,5.06,1.33,5.52.89,2.13-2.04.5-31.84,1.04-36.96.33.05.67-.04,1,0,.29,18.02.29,36.02,0,54Z"/>
  <path class="cls-14" d="M364.64,235.13c2.95,8.13,3.08,13.79,0,22-1.61,2.17-2.73.81-3.61-1.31-5.8.91-5.57-.5-4.38-5.69-3.07-.84-3.08-9.92-1-12,2.75-1.38,6.01.77,7.68-2.96l1.31-.04Z"/>
  <path class="cls-164" d="M520.49,233.13c1.17,2.31,4.83.79,4.99.99.34.43-.29,2.67.01,3.01.4.45,3.45-1.92,3.99,0,2.32,1.38,1.59,3.58-1,4-.64,2.95-1.66,5.48-1.01,9l-2.98-2.99-.02,5.99-2.98-1-1.01,5c-4.09-9.35-4.55-14.41,0-24Z"/>
  <path class="cls-162" d="M342.67,265.13c3.01,0,6.22.03,9.61.12,3.23-1.7,7.06-.46,4.38,2.88-10.16,7.42-18.46,8.56-29.97,4,.69-2.55,2.88-.74,4.52-1.88,1.46-1.02,2.26-3.94,3.17-4.14,1.32-.29,5.81-.83,7.3-.98.33-.88.66-.88,1,0Z"/>
  <path class="cls-24" d="M601.41,265.13c2.56.6,4.79,1.71,7.99,1.01l-1,2.98c6.94-.8,3.96.8,5.07,2.91.07.14,2.68-1.2,2.92,1.1-9.07,3.11-18.87,2.23-26.97-3-.73-4.81,1.94-6.81,7.99-6,1.56.89,2.55.66,4,1Z"/>
  <path class="cls-18" d="M574.44,236.13c2.92,8.92,2.33,12.58-1,21-7.02.57-8.64-.54-7.99-8-2.75-.81-3.02-7.43,0-8-2.48-5.93,4.04-7.63,8.99-5Z"/>
  <path class="cls-28" d="M356.65,250.13c.11,6.81.44,2.77,5.29,3.98,1.04.26,1.23,2.7,2.7,3.02-1.91,5.09-3.56,7.76-7.99,11-1.39-3.41-2.1-1.27-3.52-.96-.91.2-6.65.17-7.8,0-.94-.15,0-2.07-2.67-2.04l.69-2.49c5.16-2.26,9.1-6.17,10.89-11.57l2.41-.94Z"/>
  <path class="cls-146" d="M132.87,218.13c.59-.12,1.35.06,1.99,0v9c-5.3.03-10.66-.06-15.98,0-4.61-1.44-5.92-2.93-5.99-7.99,6.93.09,13.35.32,19.98-1.01Z"/>
  <path class="cls-101" d="M465.55,89.13l1,104.01c-6.05-.95-39.3,1.66-41.96-1.01,1.02-1.15,3.01-1.15,5.99,0,10.26-3.15,23.13-2.58,33.74-1-.45-3.69-.04-7.69,1.23-12-.26-4.21-.59-8.55-1-13-2.05-2.31-2.67-5.9-1.84-10.76-.85-3.14-.57-5.55.84-7.24-1.32-1.41-.77-1.92,1-1,.62-19.04.95-38.37,1-58Z"/>
  <path class="cls-50" d="M274.73,246.13c1.52-.1,8.69-.33,8.99,0,.21.24-.29,2.43.28,3.72.09.21,3.02,1.96,3.23,3.27l3.49-2c-.55.33-2.03,1.12-1.97,1.48,1.65,1.46,2.06,3.97,2.97,5.52-4.45,4.16-3.67.32-4.63.07l-6.36-.07c-3.89-5.57-8.73-4.84-14.99-3,.19-1.93-.7-2.28,2-2,1.76-1.28,2.69-3.01,2.79-5.17l2.2-.83c.27-.03,1.06-.94,2-1Z"/>
  <path class="cls-51" d="M134.87,265.13v9.01c-5.77-.93-36.32,1.64-38.96-1.01.16-2.28.81-2.73,1.17-.5h20.04s-1.23-.5-1.23-.5l-1-6c6.58-.16,12.91-.49,18.98-1,.33.03.67-.02,1,0Z"/>
  <path class="cls-40" d="M423.59,218.13v16.01s-6.99,0-6.99,0v-15c-1.76-.22-.95,2.26-1,3.49-.18,4.48,0,9.04,0,13.51.72,6.33.92,12.69,0,19h-1c-.8-.84-.74-1.65-1-2l.99-35.01c2.86.28,6.24-.38,9,0Z"/>
  <path class="cls-53" d="M484.53,265.13c1.87.56,5.66.9,5.9,1.1.31.25,2.1,6.7,1.09,7.9-7.22,1.06-11.37.5-17.98-3-2.57-1.75,3.34-8.48,5.99-7,.23.12,3.53.56,5,1Z"/>
  <path class="cls-81" d="M565.45,249.13l3.01,6.99,2.98-2.99,2.01,4c-2.36,5.95-2.89,6.96-7.99,11-2.88,1.8-10.37-4.88-5.99-7-.67-3.02,3.08-10.89,5.99-12Z"/>
  <path class="cls-16" d="M559.45,261.13l.52,3.02,3.48-1.01c-2.3,3.82.31,2.33,2,4.99-4.17,3.3-4.95,3.6-9.99,5-6.04,1.62-8.51.22-7.39-4.18-7.05-1.01-2.43-4,2.4-3.82-.37-3.09,6.72-5.86,8.99-4Z"/>
  <path class="cls-153" d="M163.84,227.13c-2.72,1.07-7.73,6.25-8.99,9,.04-3.48-6.18-2.2-6.99-7,3.47-4.96,4.1-6.15,9.99-9,2.19,2.25,2.47,6.89,5.99,7Z"/>
  <path class="cls-148" d="M59.94,264.13h26.98c-.24,2.56.32,5.53,0,8-3.48-3.13-4.51-.09-7.44.06-4.48.23-9.06-.28-13.54-.06-4.14-4.1,12.45-6.73,15.28-6.02,1.3.33,1.05,3.43,3.18,3.02l1.51-3.98c-1.36-.83-20.45.54-24.53.02-.8-.1-1.5-.04-1.45-1.03Z"/>
  <path class="cls-10" d="M479.53,264.13l-5.99,7c-4.17-2.21-6.12-4.32-8.99-8v-5s3.99,3,3.99,3c-.18-4.04-2.79-4.42,2.01-6,.52,1.27,7.77,8.38,8.99,9Z"/>
  <path class="cls-108" d="M180.82,228.13c-1.84-4.09.18-2.35.99-3.71.91-1.51.96-3.6,3.01-4.29,4.05,1.98,7.92,3.6,9.92,8.36-8.62,10.2-7.67,2.88-13.91-.36Z"/>
  <path class="cls-134" d="M574.44,236.13c-2.9,3.09-2.96.4-5.99,0,2.22,7.02-2.73,1.69-2.99,1.99-.06.99.04,2,0,3-3.25,1.13-6.32-7.38-5-10,2.68-1.62,4.86-4.07,5.99-7,4.41,4.07,6.06,6.1,7.99,12Z"/>
  <path class="cls-68" d="M1,239.13c0,4.42-1.2,31.86,0,33.01.48.46,5.16-.99,6,.99-1.46,1.23-4.98.64-6.99,0v-54c1.85,6.03.99,13.6,1,20Z"/>
  <path class="cls-95" d="M350.65,201.14c1.04.92-8.95,11-10,11.48-2.21,1-4.67.44-6.98.51,1.67-2.11,4.3-10.48,5.98-11.5,2.32-1.41,8.11-.02,11-.48Z"/>
  <path class="cls-32" d="M616.4,243.13c-3.2,1.61-4.58,4.94-5.99,8-3.13-1.12-7.27-1.76-10.99-3,4.77-.25,2.27-7.43,6.99-8,3.56,1.13,6.07,1.46,9.99,3Z"/>
  <path class="cls-63" d="M597.42,264.13c.4,3.94-4.46,1.11-5.99,2.01-.21.13,1.42,2.8-2,3.99-2.71-1.75-4.67-4.3-6.98-6.5,9.46-11.5,7.42-3.78,14.97.5Z"/>
  <path class="cls-148" d="M49.95,221.13l.99,52.01h35.97c-.66,1.39-1.2.93-2.44,1.04-10.98.98-23.39-.83-34.53-.04.39-17.63-.51-35.38,0-53.01Z"/>
  <path class="cls-34" d="M550.46,265.13c-1.86.73-4.64.68-4.99,1.99,8.61-1.19,2.59,2.35,4.88,5.41.99,1.32,3.6.38,5.1.6-7.53,2.1-8.64,1.87-15.98,0,5.99-.43-1.51-6.82,3-8,1.32-2.8,6.87-3.05,7.99,0Z"/>
  <path class="cls-126" d="M35.96,241.13c2.04.67.6,6.86,1,9H9.99v14c5.03.83,26.46-1.54,28.97,1H8.99v-16h26.97c.4,0-.28-6.8,0-8Z"/>
  <path class="cls-79" d="M465.55,89.13c.73,17,.2,35.39.02,52.51-.02,1.69.64,4.45-1.02,5.49-2.46-14.66-2.5-29.35,0-44,.01-5.08-.85-11.53,1-16,.04.66-.03,1.34,0,2Z"/>
  <path class="cls-69" d="M378.63,273.13l.5-19.01c.21,3.45,1.43,7.11,1.59,10.51.13,2.82-2.5,5.57.44,7.51,7.79-1.63,5.22-5.98,5.47-12.52.05-1.21-.75-3.72.99-3.48v16.99s-8.98,0-8.98,0Z"/>
  <path class="cls-48" d="M447.56,273.13c-.9-.1-.85-.45,0-1,1.74-16.96-1.3-36.73,0-54v55Z"/>
  <path class="cls-149" d="M2,156.13c.07,7.65-.09,15.35,0,23,.04,3.43-.29,7.22-.04,10.56.2,2.59,1.65,1.25,3.03,1.45l-3.99.99c-1.02-3.14.09-19.61.04-24.54s-1.79-5.51-.04-11.46h1Z"/>
  <path class="cls-96" d="M490.52,217.13c-1.99-.06-4,.03-5.99.01l1.99,1.48c-3.93,4.56-8.12,3.7-12.98,1.51,4.56-2.22,12.11-5.35,16.98-3Z"/>
  <path class="cls-66" d="M358.65,36.13h-39.96c.68-1.37,2.17-.97,3.41-1.06,9.58-.7,21.26-.06,31.07.04,1.69.02,4.44-.64,5.48,1.02Z"/>
  <path class="cls-64" d="M0,273.13h6.99c10.64,0,21.33,0,31.97,0v-8.01c1.68,1.7,1.81,8.06-.64,8.86-11.44-.64-24.72,1.33-35.93.19-.98-.1-1.96.03-2.39-1.05Z"/>
  <path class="cls-115" d="M439.57,245.13h-1c-.05-4.29-1.55-24.26,0-26,1.99,8.16.79,17.51,1,26Z"/>
  <path class="cls-20" d="M447.56,272.13c-.03.33.03.67,0,1h-9c-.02-5.32.05-10.68,0-16,3,7.12-3.12,16.64,8.99,15Z"/>
  <path class="cls-66" d="M360.65,54.13c-.49.78-.83,1.98-1.99,2-.13-5.65.14-11.35,0-17,2.8,3.99-.8,11.01,2,15Z"/>
  <path class="cls-124" d="M198.81,148.13c-.87-.35-6.4.99-5-2,.25-.25.33-2.37,1-3,1.17,1.49,3.24,2.84,4,5Z"/>
  <path class="cls-156" d="M363.64,88.13c-.1.22-.8,2.38-1,3,.78-3.87-2.78.71-3.99-2.99,1.8-.26,3.39-1.42,4.99-.01Z"/>
  <path class="cls-91" d="M571.44,33.13c-2.95,0-6.07-.21-8.99,0,1.86-1.68,7.13-1.68,8.99,0Z"/>
  <path class="cls-112" d="M222.78,197.13c-2.5-.02-6.33.78-7.99-1,2.54.14,6.29-.87,7.99,1Z"/>
  <path class="cls-91" d="M560.45,33.13c-1.29.13-4.38.72-5.99,1,1.12-1.77,4.11-.86,5.99-1Z"/>
  <path class="cls-7" d="M489.52,80.13c2.05.93,3.27,4.8,5,5.58,1.27.57,2.44-2.52,4.02-1.11l1.97,5.54.19.91c1.51-1.13,3.22-2.25,2.8.09-1.26,2.26-2.06,4.63,1,4-.15,1.3.12,2.69,0,4l-3.97-3c.73,2.31-6.01,5.96-6.07,6.62-.2,2.35,2.69,3.86,2.05,6.38l-5.98-4.99,1.99,4.99c-4.51-2.15-3.56.81-6.89,2.11-.97,2.28,8.45,9.56-.1,8.39,3.27,8.9,13.98,7.84,1.99,16.51,1.11,2.65-1.81,5.16-4,3-.75.34-3.72,1.29-3.99,1-.03-15.32.02-30.68,0-46,1.01-1.8.9-3.12,0-5,0-.33,0-.67,0-1,.94-2.82,4.18-1.45,5.51-2.97.95-1.09.89-4.31,1.65-4.89s2.32.1,2.83-.13Z"/>
  <path class="cls-15" d="M500.51,90.13c1.34-.83,5.25-2.17,6.99-2.99.36,2.68-2.35,3.02-3.99,3.99-.05.03-.5-.76-.99-.45-1.84,1.17-2.88,3.6-5,4.45-.41-2.83.94-3.73,2.99-5Z"/>
  <path class="cls-156" d="M340.67,85.13c6.21,2.4,4.66,6.37,4.47,12.01l3.51-2.01c1.54,5.73-4.34,2.56-3.98,7.99,1.56.78,3.6-2.52,3.98-1.99,1.78,2.41-5.4,5.15-2.98,7.99,1.81,2.12,2.11-4,3.99-1.99.95,1.02-1.72,2.84-1.86,3.67-.25,1.38,2.82,3.19,1.86,4.32-2.28,2.69-1.37-4.97-3.99-2.99,1.07,1.57-.26,6.73,0,6.96.23.2,4.03.71,4.99,1.04.91-3.71.06-7-.03-10.48-.05-2,.16-1.61,2.02-1.53,1.18,1.9-.38,10.62.01,11.01.11.1,2.88.12,2.99,0,.88-.9.2-13.66,0-16,2.22-.38,1.99.17,2.49,1.95,1.18,4.21-.07,6.91,0,10.57.08,4.42,1.29,9.92,1.49,14.99.26,6.81-.15,13.67,0,20.48l-4.49-6.98-4.49,5.98c-1.3-.4-2.7-.56-4-1-2.15,2.67-13.19-1.57-12.99-5-2.52,2.45-10.02-2.65-9.99-6,1.04-2.15-3.24-6.7-2.99-6.98.51-.58,3.25,1.46.99-4.01l4.98.99-2.98-7,3.97.5-2.97-5.5,2.98.99c-1.72-3.86-.1-4.6,1.01-7.99-8.01.02.33-5.22.79-7.75.33-1.83-1.01-3.43-.79-5.25,3.61,1.55,7.1,1.63,10.98,1.99-4.49-4.06,1.17-5.5,1.72-8.65.23-1.3-.88-2.98-.72-4.34Z"/>
  <path class="cls-156" d="M358.65,70.13h-1.99s0,3.99,0,3.99h1.99s0-3.99,0-3.99c.39.73,2.91,1.23,2.05,4.47-7.55,2.28-3.61,3.41-3.55,6.01.04,1.58-.76,11.01-3.5,8.52l-1-4.99c-.01,6.99.82,14.55,0,21.52-.22,1.84.29,1.6-2,1.48v-28c3.7-.97.47,4.81,4.01,2.48l-.03-7.48c-.79,1.06-4.72,5.5-4,1.49.56-3.08,4.3-2.27,4-5.49h-3.99c1.24-1.49,2.4-3.15,4-5,2.57-.22,2.78,2.73,4,5Z"/>
  <path class="cls-11" d="M129.87,153.13c-.29.01-1.93.94-4,1-7.39.2-17.06-.93-23.98,0l-3.99.5c-2.39,2.65-5.36,1.69-8-.5-1.32-.03-3.3.5-4-1,14.64.11,29.32-.08,43.96,0Z"/>
  <path class="cls-93" d="M143.86,153.13v12.99c-1.35-.11-1.64-4.67-1.74-5.77-.15-1.79,1.23-3.98.32-5.27-1.27-1.8-7.15-.69-9.57-.95-.25-.03-.68-.75-1-1,3.97-.21,8.02.15,11.99,0Z"/>
  <path class="cls-83" d="M30.97,1.13c5.65-.01,11.33-.02,16.98,0l1.99.51c6.59-.7,13.13.07,9.07,8.16,2.71,6.79,2.08,12.3-1.9,16.54,1.37,6.38.32,10.04-3.15,10.97.15,1.92.24,3.28-2,3.83-.33,0-.67,0-1,0-16.64.05-33.32-.04-49.96,0l.02-11c2.26.19.35,5.21.99,5.99,1.74,2.1,2.26-4.1,3.99-2,.43.52-.73,3.52.5,4,1.61-.72.94-3.74,2.12-4.06,4.71-1.29,9.25,1.64,15.53-1.07.89-.38.97-1.44,2.25-2.01,1.74-.77,14.66-4.89,11.58-8.85-.43-.55-4.19,1.6-2.99-3,1.82-.61,2.18,1.17,3,1.52,3.45,1.5.32-6.85.26-8.25-.05-1.21,1.34-2.12,1.33-2.76,0-.81-3.11-7.52-4.09-7.52H2v4C.34,6.46.81,1.31.99,1.13c1.06-1.06,25.92.02,29.98,0Z"/>
  <path class="cls-144" d="M435.57,155.13c-1.5-1.46-.08-3.84-.57-5.05-.36-.88-2.19-1.65-2.2-2.43,0-.35,2.03-2.69,1.89-6.05-.12-2.98-1.7-3.93-1.9-5.18-.17-1.05,1.42-2.41,1.46-4.33.06-2.87-1.93-6.21-1.71-8.32.03-.32,3.85-4,4.53-4.7.89-.92,4.15-.82,1.99-2.97l-2.47-.47c5.06-8.05,4.96-.65,5.49-.51,2.33.61,1.47-2.84,3.48-3.01l.5,3.99c2.44-1.6-.24-3.74.73-5.77.87-1.83,7.67-5.4,7.78-8.21l1.99,3.99c3.02-1.84,3.77-5.25,7.98-3-.03,14.65.02,29.35,0,44l-1,1c-5.97,4.65-17.5,8.61-24.98,7-.86,2.75-2.15,2.7-3,0Z"/>
  <path class="cls-101" d="M435.57,155.13c.91-.17,2.12.18,3,0,12.27-.6,19.09,3.87,20.46,13.39,4.53-.42,5.26,1.36,5.51,5.61.89,1.45.8,3.5,0,5,.76,1.02.83,2.91,0,4-5.15-.69-5.05-4.46-7.94-7.56-2.4-2.58-14.68-11.27-17.77-12.21-2.11-.64-4.64.04-7.06-.91-1.14-.45-1.03-2.12-1.9-2.31-1.26-.28-3.73.35-4.26-.07-.38-.3.17-2.22-.03-2.94.39.42,8.39-1.7,9.99-2Z"/>
  <path class="cls-55" d="M425.58,101.13c1.05,18.31-.78,37.58,0,56-.3-1.05-.93-1.42-1.07-3.38-1.33-18.94,1.14-39.51.07-58.62.6,2.56.83,3.1,1,6Z"/>
  <path class="cls-116" d="M72.93,1.13c3.31,3.95,4.06,11.1.18,15.17l-.92,14.77c1.14,4.01.6,6.24-1.26,10.07-6.31.05-12.67-.02-18.98,0v-8s2.98,2.99,2.98,2.99c1.23-2.69-.19-8.27.29-10.36.31-1.34,2.4-2.46,3.13-4.53,1.28-3.59-1.45-8.68-1.31-11.67.06-1.28,1.5-2.23,1.51-2.92,0-.23-1.6-4.19-1.77-4.35-1.18-1.08-7.22,1.19-8.84-1.16,8.31.02,16.66-.07,24.98,0Z"/>
  <path class="cls-89" d="M82.92,1.13c-1.51,4.47,2.68,7.16-2,10.51l2.05,1.14c-.88,6.1.2,13.07-.36,19.08-.29,3.08-3.33,5.6-.69,9.27-3.65.04-7.33-.02-10.99,0l-3.99-2.99c6.84-.55,2.89-3.82,3.28-7.39.48-4.48.45-11.61.99-14.99.23-1.45,2.5-2.58,2.6-5.08s-1.76-6.48-.87-9.56c3.32.03,6.68-.12,9.99,0Z"/>
  <path class="cls-59" d="M228.78,99.13c1.83-.4,2.82-.06,3,1,1.16.55,1.73,1.38,2.12,2.54,7.79.45,12.81,5.59,2.08,6.9-.87,2.89-2.23,5.42-4.09,7.59,1.9,4.28-1.07,7.74-5.1,8.98-7.65.02-15.33-.06-22.98,0,.28-3.51,5.31-4.05,7.89-5.6.97-.58,1.29-2.37,2.14-2.88,1.36-.82,3.78-.35,3.97-.52,1.42-1.25-6.14-11.77-.99-17.52,1.48-1.65,9.01-.3,11.97-.47Z"/>
  <path class="cls-163" d="M236.77,98.13c5.06-2.03,12.77-1.74,17.98,0,13.79-4.28,6.16,12.79-3,9-4.26,1.86-9.07-.84-12.59-3.3-3.98-.15-6.45-1.38-7.39-3.7-.8-.33-1.53-1.49-3-1,1.99-.11,4.91-.91,7.99-1Z"/>
  <path class="cls-113" d="M265.74,96.13c2.44,3.29-1.72,3.46-4.71,3.02-.74-2.61-4.08-1.74-6.28-1.02-5.91,0-12.18-.17-17.98,0-1.04-1.66-3.79-1-5.48-1.02-14.07-.17-28.83.99-42.47-.98.29-.37.71-.64,1-1l2.27-1.97c24.16.32,48.31.64,72.47.95l1.18,2.02Z"/>
  <path class="cls-88" d="M111.89,1.13c3.98.03,8-.03,11.98.01.2,1.75-2.82.95-3.99.99-3.31.12-6.67-.02-9.99,0-3.65.02-7.34.05-10.99,0-2.02-.03-6.96.91-7.99-.99,6.98.02,14-.06,20.97-.01Z"/>
  <path class="cls-78" d="M502.51,129.13c2.09,1.72,1.63,2.29-1,2,0,2.79,1.29,6.01,1.78,8.82.26,1.46-.7,3.74-.36,4.24.76,1.09,4.06,1.19,5.54,2.46.45.38,6.66,7.67,7.59,8.87,1.43,1.85,1.62,5.39,4.42,6.61,3.02,9.26-8.26,8-6.2-1.23-2.12-1.14-4.19-2.41-6.2-3.78-4.41.08-9.97-.11-12.57-3.98-.6,1.6-1.26,1.69-2,0-.33,2.69-1.22,2.56-2,0-.28-.05-4.55-3.03-4.66-3.3-1.17-2.98-1.21-7.6-3.34-10.7,1.13-.51,2.83-2.43,4-3,4.89-2.41,10.22-4.27,14.99-7Z"/>
  <path class="cls-84" d="M520.49,142.13c-6.01,3.54-18.08-9.24-13.99-15,3.06-1.82,10.47-6.76,12.99-9,1.65,1.04,1,3.8,1.02,5.49.06,6.13.21,12.4-.02,18.51Z"/>
  <path class="cls-70" d="M506.51,127.13c1.6,7.88,6.43,12.7,13.99,15-.07,1.82.05,3.66,0,5.49-2.84,2.21-3.22-1.42-4.33-2.16-2.15-1.43-5-1.96-6.71-4.82l-7.95-9.51c0-.46.82-1.4,1-2,1.46-.83,3.05-1.43,4-2Z"/>
  <path class="cls-66" d="M328.68,74.13c.04-2.17.38-5.39-.19-7.31-.8-2.67-4.52-2.01-3.82-4.18.32-.98,4.9-.41,4-3.5-6.2,1.04-2.91-1.79-4.44-4.03-.82-1.21-3.75-.69-4.42-2.6-.49-1.39-.36-13.47.31-14.44.97-1.4,10.23-1.4,11.61-.49,1.77,1.17-.55,6.24,1.56,6.6,4.74.86,9.48-6.07,12.07-6.85,3.35-1.01,8.63.28,12.29-.2-.47,2.24.68,9.83,0,11-.16.27-3.41-1.84-4.62,2.99-.72,2.89,2.99,1.93-1.01,8.91-2.17,3.78-3.68,4.23-6.29,6.64-6.31,5.83-5.98,9.7-17.03,7.47Z"/>
  <path class="cls-33" d="M323.68,138.13c2.75,1.34,6.99,4.69,9.99,6,.05,3.07-1.56,7.37-4.31,9.16,1.88,3.93-.7,5.31-4.56,4.1-.22.06-2.74,3.05-2.88,3.39-.75,1.93-.64,26.74.23,28.08,4.51.08,8.98.37,13.42.88l.1,2.39h-16.99c-.02-18.31.04-36.68,0-55,1.52.21,3.66.35,5,1Z"/>
  <rect class="cls-156" x="331.68" y="93.14" width="1.99" height="2.99"/>
  <path class="cls-12" d="M196.81,166.13c-1.4.61-.73,2.11-1,3-2.43-.5-2.53-3.48-.43-3.98.53-.13,1.29,1,1.43.98Z"/>
  <path class="cls-35" d="M346.66,149.13c-2.81,4.56-.63,9.84-.52,14.96.07,2.99-.76,8.22-.31,11.34.29,2.05,3.2,3.57,2.88,6.16-.06.49-1.58.58-1.7.79-2.74,4.64,6.47,3.55,7.67,4.31.31.2,4.97,7.54,4.97,2.94v-35.5h1v38c-8.28-.32-16.71.43-24.98,0-.13,0-1.13-.95-2.42-1.04-4.31-.3-9.41,1.05-13.13-.9-.86-1.24-.79-27.42-.01-30.16.13-.46,4.68-5.84,5.07-5.87.51-.04,1.73,2.69,3.5,1.95-3.6-5.37-.46-3.4,1.06-5.69,1.15-1.72.9-4.71,3.93-6.3,3.44,1.51,9.42,3.8,12.99,5Z"/>
  <path class="cls-22" d="M378.63,219.13h3c.11,1.04-2,2.08-2,2.5v24.5h-1v-27Z"/>
  <path class="cls-69" d="M387.61,246.13c-1.74.23-.94-2.27-.99-3.48-.11-2.49.06-5.02,0-7.51,1.74-.23.94,2.27.99,3.48.11,2.49-.06,5.02,0,7.51Z"/>
  <path class="cls-139" d="M260.75,80.13l10.99,3.01c.02.66.03,1.32,0,1.99-.14,3.57,1.82,6.71,1.01,11l3.98-.99c-3.03,4.51,7.22,15.23-1,15,.16,2.72,3.46,3.56,0,6-7.9.41-16.34-2.39-21.98-8-1.66,2.21-2.24,1.68-2-1,3.72,1.39,8.14-4.79,8.98-7.52.75-2.45-4.4-1.48-5.98-1.48,2.4-2.37,7.53-.21,10.48-1.02l.51-.98c.29-2.46-4.24-11.78-5.99-14,.2-.63.95-1.47,1-2Z"/>
  <path class="cls-64" d="M19.98,269.14c-.15,5.41-4.53,1.26-2.98-1.01.19-.28,1.93,1.47,2.98,1.01Z"/>
  <path class="cls-106" d="M275.73,116.13c.17.06.49.91,1,1v1c-6.97-2.31-3.86-.33-5.92,2.29-.7.89-3.01,1.59-3.05,2.2,0,.13.98,2.34,1.09,2.42,1.24,1,7.83-1.37,8.88,1.08-10.31.04-20.66-.02-30.96.01-5.37-.36-7.38-2.92-2.2-6.08-.21-5.2,4.58-10.35,9.19-11.92,7.3,2.86,14.74,5.59,21.98,8Z"/>
  <path class="cls-75" d="M101.9,154.13c-.73.1-2.38,1.68-4,1.01,4.93,4.92.89,6.65.95,9.47.01.63,2.5-.25,2.05,2.9-1.05,7.39-4.54,4.71-5.86,5.73-.72.56-.9,6.64-1.13,6.9-.19.22-1.99-.75-3-.42-5.82,1.93-5.02,7.38-5.98,12.4-2.68-.21-10.14,1.3-10.01-2.5.03-.9,1.91-.23,1.91-.93.03-9.54.05-7.9,6.47-14.7.57-.61.4-2.25.85-2.64.64-.55,2.58-.18,3.75-.76,4.1-2.02-.19-12.84,2.02-16.47,3.98.08,8-.06,11.99,0Z"/>
  <path class="cls-167" d="M425.58,167.13c1.76.41,6.89,1.72,7.97,2.52s.96,2.86,2.03,3.96c1.99,2.06,4.57,4.48,6.7,6.57,3.36,3.29,17.23,9.01,21.67,6.05,1.13-.75.51-2.07.58-3.1.09-1.32-.05-2.67,0-4,.28-.87.62-.86,1,0,0,4.32,0,8.68,0,13.01-11.62-.32-23.36.41-34.97,0l-5.02-.86c-.9-.81-.75-21.46.02-24.14Z"/>
  <path class="cls-114" d="M425.58,167.13c.13,4.9-.92,20.12.95,23.34.66,1.13,3.04.5,4.05,1.66-1.99-.07-4.01.05-5.99,0v-29.99c1.81-.06.97,3.72,1,4.99Z"/>
  <path class="cls-29" d="M95.91,239.13l.99,33.01c6.31-.07,12.67.08,18.99,0,5.89-.08,13.26,1.38,17.97-2l.02,3h-37.97c.03-11.31-.04-22.68,0-34Z"/>
  <path class="cls-27" d="M133.87,265.13c-.79,2.5-2.03,1.21-3.56,1.18-5.14-.1-10.29-.31-15.42-.18,5.36-1.5,13.36-1.45,18.98-1Z"/>
  <path class="cls-120" d="M480.53,159.13c3.99.01,7.37,2.9,11.13,4.42,1.71.69,3.96.6,4.86.58.52-1.94,1.43-2.11,2.94-.94,5.85,6.03,12.19,11.26,19.01,15.7-.15-3.73.86-5.99,3.03-6.76-.08,4.19.4,8.96,0,13-.11,1.14-1.98,3.78-.99,6.01-9.77.07-13.07,1.65-18.83-6.67-2.55-3.68-3.06-4.36-5.84-7.72-.66-.8-1.78-4.29-3.33-5.06-2.89-1.42-4.48.19-6.49-.06-7.3-.91-5.36-7.07-5.48-12.51Z"/>
  <path class="cls-23" d="M479.53,178.13c2.25,1.73.07,6.22,1.42,8.08.84,1.15,6.29.45,6.57,5.91h-7.99c-.44-4.27.04-9.54,0-13.99Z"/>
  <path class="cls-120" d="M480.53,156.13h-1c.01-1.67-.38-12.01.5-12.01.97,3.86.44,8.05.5,12.01Z"/>
  <path class="cls-74" d="M272.73,247.13l-1,4.99,5.99,1c-2.6-.5-7.9.72-9.99.01-1.15-.39-2.48-4.56-2-6,2.26-.21,4.8.27,7,0Z"/>
  <path class="cls-38" d="M495.52,153.13c5.15.14,4.18,1.33,6.64,1.73,6.12.99,5.06-1.74,11.46,3.66.78.65,2.45.45,2.73.74,1.33,1.37-2.07,6.03.73,6.79,4.34,1.17,3.36-.65,3.42-3.92l.99-9.99c-.08,6.65.14,13.35.01,19.99l-1.49,9.99c-3.29-1.68-6.96-3.87-9.86-6.13-3.29-2.58-10.79-11.93-13.63-11.86-.3-5.31-5.3-5.93-5-11,.59.1,1.34-.02,2,0,.53,0,.95.02.99.15.68,2.45-1.47,2.81-.04.32.16-.27.56-.39,1.05-.47Z"/>
  <path class="cls-47" d="M479.53,89.13c4.55,1.18,3.59,2.81,0,5,0-1.67,0-3.33,0-5Z"/>
  <path class="cls-123" d="M251.75,107.13c.48.19,1.14.66,2,1-.97,3.53-5.48,5.7-6.92,8.77-.44.94.27,2.77-.59,4.26-.68,1.17-6.37,2.27.51,4.97-6.65.02-13.33-.02-19.98,0,.18-2.1,3.52-4.3,3.77-5.61s-1.04-3.09-.82-4.73c.1-.74,1.7-.7,2.04-1.36,3.02-5.85.9-7.71,9-7.31-1.88-4.69-5.75-1.99-9.38-2.91l.39-4.07c6,2.49,13.27,4.38,19.98,7Z"/>
  <path class="cls-165" d="M415.59,255.13c0-6.32-.01-12.68,0-19,1.65,1.04,1,3.8,1.02,5.49.04,4.18.77,10.01-1.02,13.51Z"/>
  <path class="cls-143" d="M463.55,148.13c1.86,5.36.98,12.24,1,18,.54,2.66,1.05,5.44,0,8-.63-5.53-7.12-2.67-8-4.01-.42-.64.92-2.68.44-4.02-.13-.37-4-6.14-4.43-6.47-4.21-3.23-11.37.4-13.98-4.5,8.41-1.76,16.57-5.16,24.98-7Z"/>
  <path class="cls-145" d="M465.55,179.13h-1c.06-1.66-.03-3.34,0-5,.04-2.66,0-5.34,0-8,1.84,3.32,1,8.9,1,13Z"/>
  <path class="cls-122" d="M495.52,153.13c-.1,1.29-.5,2.78-1.99,3v-3c.65.02,1.32-.02,1.99,0Z"/>
</svg>